<svg width="21" height="21" viewBox="0 0 21 21" fill="none" xmlns="http://www.w3.org/2000/svg">
<path d="M17.2952 0.00683139L3.15454 0.006832C1.53925 0.00683207 0.224854 1.32122 0.224854 2.93652L0.224854 17.0771C0.224854 18.6924 1.53925 20.0068 3.15454 20.0068L9.05298 20.0068L9.05298 12.9365L6.70923 12.9365L6.70923 9.42089L9.05298 9.42089L9.05298 7.03808C9.05298 5.09945 10.63 3.52246 12.5686 3.52246L16.1233 3.52246L16.1233 7.03808L12.5686 7.03808L12.5686 9.42089L16.1233 9.42089L15.5374 12.9365L12.5686 12.9365L12.5686 20.0068L17.2952 20.0068C18.9105 20.0068 20.2249 18.6924 20.2249 17.0771L20.2249 2.93652C20.2249 1.32122 18.9105 0.00683132 17.2952 0.00683139Z" fill="black"/>
</svg>
