<svg width="21" height="20" viewBox="0 0 21 20" fill="none" xmlns="http://www.w3.org/2000/svg">
<path d="M10.9467 0.504391C5.42166 0.504391 0.946655 4.86606 0.946655 10.2455C0.946655 14.5501 3.81165 18.2006 7.78415 19.4876C8.28415 19.5793 8.46749 19.2778 8.46749 19.0192C8.46749 18.7879 8.45916 18.175 8.45499 17.3629C5.67332 17.9503 5.08666 16.0561 5.08666 16.0561C4.63166 14.9318 3.97416 14.6311 3.97416 14.6311C3.06832 14.0272 4.04416 14.0396 4.04416 14.0396C5.04832 14.1074 5.57582 15.0433 5.57582 15.0433C6.46749 16.5327 7.91666 16.1023 8.48832 15.8537C8.57832 15.2234 8.83582 14.7947 9.12166 14.551C6.90082 14.3073 4.56666 13.4696 4.56666 9.73743C4.56666 8.67427 4.95415 7.80524 5.59582 7.12373C5.48332 6.87756 5.14582 5.88709 5.68332 4.54555C5.68332 4.54555 6.52082 4.28451 8.43332 5.54427C9.23332 5.32784 10.0833 5.22045 10.9333 5.21549C11.7833 5.22045 12.6333 5.32784 13.4333 5.54427C15.3333 4.28451 16.1708 4.54555 16.1708 4.54555C16.7083 5.88709 16.3708 6.87756 16.2708 7.12373C16.9083 7.80524 17.2958 8.67427 17.2958 9.73743C17.2958 13.4795 14.9583 14.3031 12.7333 14.5427C13.0833 14.8351 13.4083 15.4324 13.4083 16.3452C13.4083 17.6487 13.3958 18.6962 13.3958 19.0126C13.3958 19.2678 13.5708 19.5727 14.0833 19.4752C18.0842 18.1964 20.9467 14.5435 20.9467 10.2455C20.9467 4.86606 16.4692 0.504391 10.9467 0.504391Z" fill="#212121"/>
</svg>
