<svg width="21" height="21" viewBox="0 0 21 21" fill="none" xmlns="http://www.w3.org/2000/svg">
<path d="M14.5857 0.0014696L7.08572 0.00146961C3.63447 0.00146961 0.835724 2.80022 0.835724 6.25147L0.835724 13.7515C0.835724 17.2027 3.63447 20.0015 7.08572 20.0015L14.5857 20.0015C18.037 20.0015 20.8357 17.2027 20.8357 13.7515L20.8357 6.25147C20.8357 2.80022 18.037 0.00146959 14.5857 0.0014696ZM18.9607 13.7515C18.9607 16.164 16.9982 18.1265 14.5857 18.1265L7.08572 18.1265C4.67322 18.1265 2.71072 16.164 2.71072 13.7515L2.71072 6.25147C2.71072 3.83897 4.67322 1.87647 7.08572 1.87647L14.5857 1.87647C16.9982 1.87647 18.9607 3.83897 18.9607 6.25147L18.9607 13.7515Z" fill="black"/>
<path d="M10.8357 5.00147C8.07447 5.00147 5.83572 7.24022 5.83572 10.0015C5.83572 12.7627 8.07447 15.0015 10.8357 15.0015C13.597 15.0015 15.8357 12.7627 15.8357 10.0015C15.8357 7.24022 13.597 5.00147 10.8357 5.00147ZM10.8357 13.1265C9.11322 13.1265 7.71072 11.724 7.71072 10.0015C7.71072 8.27772 9.11322 6.87647 10.8357 6.87647C12.5582 6.87647 13.9607 8.27772 13.9607 10.0015C13.9607 11.724 12.5582 13.1265 10.8357 13.1265Z" fill="black"/>
<path d="M16.2107 5.2927C16.5787 5.2927 16.877 4.99442 16.877 4.62646C16.877 4.2585 16.5787 3.96021 16.2107 3.96021C15.8428 3.96021 15.5445 4.2585 15.5445 4.62646C15.5445 4.99442 15.8428 5.2927 16.2107 5.2927Z" fill="black"/>
</svg>
