<?xml version="1.0" encoding="UTF-8" standalone="no"?>
<svg
   width="32"
   height="32"
   viewBox="0 0 32 32"
   data-name="Layer 1"
   version="1.1"
   id="svg4"
   sodipodi:docname="vkontakte.svg"
   inkscape:version="1.1.2 (0a00cf5339, 2022-02-04)"
   xmlns:inkscape="http://www.inkscape.org/namespaces/inkscape"
   xmlns:sodipodi="http://sodipodi.sourceforge.net/DTD/sodipodi-0.dtd"
   xmlns="http://www.w3.org/2000/svg"
   xmlns:svg="http://www.w3.org/2000/svg">
  <defs
     id="defs8" />
  <sodipodi:namedview
     id="namedview6"
     pagecolor="#ffffff"
     bordercolor="#000000"
     borderopacity="0.25"
     inkscape:pageshadow="2"
     inkscape:pageopacity="0.0"
     inkscape:pagecheckerboard="0"
     showgrid="false"
     width="32px"
     inkscape:zoom="10.8125"
     inkscape:cx="2.6358381"
     inkscape:cy="15.306358"
     inkscape:window-width="1366"
     inkscape:window-height="702"
     inkscape:window-x="0"
     inkscape:window-y="0"
     inkscape:window-maximized="1"
     inkscape:current-layer="svg4"
     height="32px" />
  <path
     d="m 20.904799,0.11115596 h -9.816704 c -8.966704,0 -11.10000003,2.13329604 -11.10000003,11.08329604 v 9.816704 c 0,8.966608 2.11670403,11.1 11.08329603,11.1 h 9.816704 c 8.966704,0 11.1,-2.116704 11.1,-11.083392 v -9.816608 c 0,-8.966704 -2.116704,-11.10000004 -11.083296,-11.10000004 z M 25.821391,22.944452 h -2.333296 c -0.883296,0 -1.15,-0.716688 -2.733296,-2.3 -1.383408,-1.333296 -1.966704,-1.5 -2.316704,-1.5 -0.483296,0 -0.616704,0.133312 -0.616704,0.8 v 2.1 c 0,0.566704 -0.183296,0.9 -1.666592,0.9 A 9.107424,9.107424 0 0 1 9.038095,18.677764 18.601776,18.601776 0 0 1 5.354799,10.944452 c 0,-0.35 0.133296,-0.666688 0.8,-0.666688 h 2.333296 c 0.6,0 0.816704,0.266688 1.05,0.883392 1.133296,3.333296 3.066704,6.233296 3.85,6.233296 0.3,0 0.433296,-0.133296 0.433296,-0.883296 v -3.433392 c -0.1,-1.566608 -0.933296,-1.7 -0.933296,-2.266608 a 0.576128,0.576128 0 0 1 0.6,-0.533392 h 3.666704 c 0.5,0 0.666592,0.25 0.666592,0.85 v 4.633392 c 0,0.5 0.216704,0.666608 0.366704,0.666608 0.3,0 0.533296,-0.166608 1.083296,-0.716608 a 19.198032,19.198032 0 0 0 2.866704,-4.766704 1.005088,1.005088 0 0 1 1.016704,-0.666688 h 2.333296 c 0.7,0 0.85,0.35 0.7,0.85 a 29.128112,29.128112 0 0 1 -3.133296,5.383392 c -0.25,0.383296 -0.35,0.583296 0,1.033296 0.233296,0.35 1.05,1.033312 1.6,1.683312 a 10.376848,10.376848 0 0 1 1.966592,2.733392 c 0.2,0.65 -0.133296,0.983296 -0.8,0.983296 z"
     id="path2"
     style="stroke-width:1.6" />
</svg>
