<?xml version="1.0" encoding="UTF-8" standalone="no"?>
<svg
   viewBox="0 0 57.039276 65"
   version="1.1"
   id="svg4"
   sodipodi:docname="bootstrap.svg"
   width="57.039276"
   height="65"
   inkscape:version="1.1.2 (0a00cf5339, 2022-02-04)"
   xmlns:inkscape="http://www.inkscape.org/namespaces/inkscape"
   xmlns:sodipodi="http://sodipodi.sourceforge.net/DTD/sodipodi-0.dtd"
   xmlns="http://www.w3.org/2000/svg"
   xmlns:svg="http://www.w3.org/2000/svg">
  <defs
     id="defs8" />
  <sodipodi:namedview
     id="namedview6"
     pagecolor="#ffffff"
     bordercolor="#000000"
     borderopacity="0.25"
     inkscape:pageshadow="2"
     inkscape:pageopacity="0.0"
     inkscape:pagecheckerboard="0"
     showgrid="false"
     lock-margins="true"
     height="65px"
     fit-margin-top="0"
     fit-margin-left="0"
     fit-margin-right="0"
     fit-margin-bottom="0"
     inkscape:zoom="4.0546875"
     inkscape:cx="54.381503"
     inkscape:cy="29.965318"
     inkscape:window-width="1366"
     inkscape:window-height="702"
     inkscape:window-x="0"
     inkscape:window-y="0"
     inkscape:window-maximized="1"
     inkscape:current-layer="svg4" />
  <path
     fill="#5b4282"
     d="m 0,57.90216 h 2.178674 c 0.992735,0 1.713723,0.141371 2.16192,0.424112 0.44872,0.28274 0.672818,0.731984 0.672818,1.348254 0,0.418352 -0.09844,0.761306 -0.294783,1.029386 -0.196348,0.26808 -0.457621,0.429347 -0.783297,0.4838 v 0.04765 c 0.444008,0.09896 0.763924,0.284311 0.960271,0.555533 0.196348,0.271221 0.294784,0.631978 0.294784,1.082268 0,0.638785 -0.230382,1.136723 -0.692191,1.494338 -0.461287,0.357614 -1.088029,0.53616 -1.879703,0.53616 H 0 Z m 1.484389,2.772954 h 0.861835 c 0.402121,0 0.693762,-0.06231 0.873879,-0.186399 0.18064,-0.124616 0.270698,-0.330388 0.270698,-0.617841 0,-0.26808 -0.09791,-0.460239 -0.29426,-0.577001 -0.196348,-0.116761 -0.506839,-0.17488 -0.931474,-0.17488 H 1.484389 Z m 0,1.178086 v 1.824725 H 2.45199 c 0.408404,0 0.709994,-0.07802 0.905294,-0.23457 0.195301,-0.156554 0.292166,-0.395837 0.292166,-0.718371 0,-0.580665 -0.41521,-0.871784 -1.245107,-0.871784 z m 11.459377,-0.459715 c 0,1.158713 -0.287453,2.04987 -0.861836,2.672423 C 11.507548,64.688462 10.683935,65 9.611091,65 8.538247,65 7.714633,64.688462 7.140251,64.065908 6.565345,63.443355 6.278415,62.54958 6.278415,61.38406 c 0,-1.16552 0.287977,-2.055106 0.864454,-2.669805 0.576477,-0.6147 1.402184,-0.922049 2.47817,-0.922049 1.075985,0 1.898551,0.309967 2.468745,0.928855 0.569147,0.619412 0.853982,1.510569 0.853982,2.672424 z m -5.10923,0 c 0,0.782249 0.148177,1.371292 0.445579,1.767129 0.296877,0.395837 0.740362,0.593756 1.330976,0.593756 1.184369,0 1.776554,-0.786962 1.776554,-2.360885 0,-1.577065 -0.589043,-2.365598 -1.76713,-2.365598 -0.590614,0 -1.036192,0.198443 -1.336212,0.596374 -0.300019,0.397931 -0.449767,0.986975 -0.449767,1.769224 z m 12.915492,0 c 0,1.158713 -0.287453,2.04987 -0.861835,2.672423 C 19.31381,64.688462 18.490197,65 17.417353,65 c -1.072844,0 -1.896458,-0.311538 -2.47084,-0.934092 -0.574906,-0.622553 -0.861836,-1.516328 -0.861836,-2.681848 0,-1.16552 0.287977,-2.055106 0.864454,-2.669805 0.576477,-0.6147 1.402184,-0.922049 2.47817,-0.922049 1.075986,0 1.898552,0.309967 2.468745,0.928855 0.568623,0.619412 0.853982,1.510569 0.853982,2.672424 z m -5.109753,0 c 0,0.782249 0.148177,1.371292 0.445578,1.767129 0.296878,0.395837 0.740362,0.593756 1.330976,0.593756 1.18437,0 1.776554,-0.786962 1.776554,-2.360885 0,-1.577065 -0.589043,-2.365598 -1.767129,-2.365598 -0.590614,0 -1.036193,0.198443 -1.336212,0.596374 -0.300019,0.397931 -0.449767,0.986975 -0.449767,1.769224 z m 9.26133,3.510174 h -1.484389 v -5.765817 h -1.90117 V 57.90216 h 5.286728 v 1.235682 h -1.901169 z m 7.110929,-1.944105 c 0,0.632502 -0.22724,1.13044 -0.682243,1.494338 C 30.875288,64.817789 30.242263,65 29.431739,65 28.684571,65 28.023795,64.859153 27.449413,64.578507 V 63.19936 c 0.472282,0.210485 0.872307,0.359186 1.199554,0.445579 0.327246,0.08639 0.626218,0.129328 0.897963,0.129328 0.325676,0 0.57543,-0.06231 0.749263,-0.1864 0.174357,-0.124615 0.261273,-0.309444 0.261273,-0.555533 0,-0.137182 -0.03822,-0.259179 -0.114667,-0.366516 -0.07644,-0.106813 -0.189017,-0.209961 -0.337718,-0.30892 -0.1487,-0.09896 -0.450814,-0.257085 -0.907388,-0.473853 -0.427776,-0.20106 -0.748739,-0.394266 -0.962366,-0.579618 -0.21415,-0.185353 -0.384841,-0.40055 -0.512598,-0.646115 -0.127757,-0.246089 -0.191636,-0.533542 -0.191636,-0.861836 0,-0.619411 0.209962,-1.106354 0.629884,-1.460827 0.419922,-0.354473 1.000064,-0.531448 1.74095,-0.531448 0.363898,0 0.71104,0.04293 1.041428,0.129328 0.330388,0.08639 0.67596,0.207343 1.036716,0.363898 l -0.479088,1.154001 c -0.373323,-0.15289 -0.682243,-0.260226 -0.926762,-0.320963 -0.244518,-0.06074 -0.484324,-0.09111 -0.720465,-0.09111 -0.28117,0 -0.496367,0.06545 -0.646638,0.196348 -0.150272,0.130899 -0.225146,0.30159 -0.225146,0.512599 0,0.130898 0.03037,0.245041 0.09111,0.34243 0.06074,0.09739 0.157078,0.191635 0.289547,0.282741 0.132469,0.0911 0.446102,0.254466 0.940898,0.491131 0.654493,0.313109 1.103213,0.626742 1.345637,0.940898 0.242424,0.314156 0.363374,0.698474 0.363374,1.155048 z m 3.970413,1.944105 h -1.484389 v -5.765817 h -1.90117 V 57.90216 h 5.286729 v 1.235682 h -1.90117 z m 4.463115,-2.686561 v 2.686561 H 38.961673 V 57.90216 h 2.039922 c 0.95137,0 1.65508,0.17331 2.111654,0.519406 0.456574,0.346619 0.684861,0.872831 0.684861,1.578112 0,0.412068 -0.113096,0.77806 -0.339812,1.099023 -0.226716,0.320964 -0.54768,0.572289 -0.962366,0.753976 1.053471,1.573923 1.739903,2.590743 2.059295,3.050458 h -1.647226 l -1.671312,-2.68656 h -0.790627 z m 0,-1.206884 h 0.479088 c 0.46914,0 0.81576,-0.07802 1.039334,-0.23457 0.223575,-0.156555 0.3351,-0.402644 0.3351,-0.737744 0,-0.331958 -0.114143,-0.568099 -0.34243,-0.708946 -0.228287,-0.140323 -0.581713,-0.210485 -1.060801,-0.210485 h -0.450291 z m 9.27599,3.893445 -0.507886,-1.6666 h -2.55252 l -0.507887,1.6666 H 44.55418 l 2.47084,-7.029773 h 1.814776 l 2.480788,7.029773 z m -0.862359,-2.911706 c -0.46914,-1.510045 -0.733555,-2.364027 -0.792721,-2.561945 -0.05917,-0.197919 -0.101054,-0.354474 -0.12671,-0.469141 -0.105242,0.408404 -0.406833,1.41894 -0.905294,3.031086 z m 8.179585,-1.905882 c 0,0.753451 -0.235618,1.329928 -0.706329,1.728383 -0.470711,0.399503 -1.140387,0.598992 -2.00903,0.598992 h -0.63669 v 2.490213 H 52.20284 V 57.90216 h 2.23627 c 0.849269,0 1.494861,0.182735 1.937298,0.548203 0.441913,0.365992 0.66287,0.911054 0.66287,1.635708 z m -3.352049,1.111066 h 0.488513 c 0.456574,0 0.797957,-0.09006 1.024674,-0.270698 0.226716,-0.18064 0.339812,-0.44296 0.339812,-0.787485 0,-0.34819 -0.09529,-0.605275 -0.284835,-0.771254 -0.190065,-0.165979 -0.48799,-0.249231 -0.893251,-0.249231 h -0.675436 v 2.078668 z M 33.729922,28.671481 C 32.691635,28.329574 31.196775,28.274073 29.24534,28.274073 h -7.008829 v 10.471879 h 7.55232 c 1.310032,0 2.229986,-0.130375 2.759863,-0.22881 0.933568,-0.166503 1.714247,-0.486943 2.341512,-0.877544 0.627266,-0.389554 1.143006,-0.978597 1.54722,-1.724195 0.403691,-0.745597 0.606322,-1.616334 0.606322,-2.592313 0,-1.143529 -0.292689,-2.083904 -0.878067,-2.92689 -0.584854,-0.84351 -1.396948,-1.383336 -2.435759,-1.724719 z M 32.653413,24.16229 c 1.03148,-0.306826 1.809017,-0.861836 2.33104,-1.572353 0.523071,-0.710517 0.784344,-1.624712 0.784344,-2.698603 0,-1.017343 -0.243995,-1.924208 -0.731984,-2.698603 -0.48799,-0.773872 -1.184893,-1.299037 -2.090187,-1.584919 -0.906865,-0.284835 -2.460892,-0.423587 -4.663128,-0.423587 h -6.046987 v 9.424691 h 6.54859 c 1.798545,0 3.087633,-0.208914 3.868312,-0.446626 z M 56.270118,7.3962881 C 56.270118,3.3112081 52.958386,0 48.873306,0 H 8.165971 C 4.080891,0 0.76916,3.3112081 0.76916,7.3962881 V 48.10467 c 0,4.08508 3.311731,7.396289 7.396811,7.396289 h 40.707335 c 4.08508,0 7.396812,-3.311209 7.396812,-7.396289 z M 40.337154,37.316541 c -0.605798,1.233587 -1.355585,2.184957 -2.247265,2.85411 -0.892204,0.66863 -2.011124,1.280711 -3.356237,1.622094 -1.345113,0.341907 -2.993387,0.618365 -4.944821,0.618365 H 18.04776 V 11.519067 h 11.5531 c 2.342036,0 4.219644,0.324628 5.634395,0.944563 1.415274,0.620459 2.522675,1.581778 3.325345,2.870866 0.801099,1.289612 1.202172,2.642055 1.202172,4.049999 0,1.310032 -0.356044,2.54519 -1.066038,3.702333 -0.71104,1.157143 -1.784408,2.091758 -3.220102,2.802275 1.853522,0.54349 3.279269,1.471822 4.275668,2.781854 0.996399,1.310556 1.494861,2.857776 1.494861,4.642184 -5.24e-4,1.435695 -0.303161,2.770336 -0.910007,4.0034 z"
     id="path2"
     style="stroke-width:0.523594" />
</svg>
