<?xml version="1.0" encoding="UTF-8" standalone="no"?>
<svg
   viewBox="0 0 128 55"
   version="1.1"
   id="svg8"
   sodipodi:docname="git.svg"
   width="128"
   height="55"
   inkscape:version="1.1.2 (0a00cf5339, 2022-02-04)"
   xmlns:inkscape="http://www.inkscape.org/namespaces/inkscape"
   xmlns:sodipodi="http://sodipodi.sourceforge.net/DTD/sodipodi-0.dtd"
   xmlns="http://www.w3.org/2000/svg"
   xmlns:svg="http://www.w3.org/2000/svg">
  <defs
     id="defs12" />
  <sodipodi:namedview
     id="namedview10"
     pagecolor="#ffffff"
     bordercolor="#000000"
     borderopacity="0.25"
     inkscape:pageshadow="2"
     inkscape:pageopacity="0.0"
     inkscape:pagecheckerboard="0"
     showgrid="false"
     inkscape:zoom="4.0546875"
     inkscape:cx="100.25434"
     inkscape:cy="58.820809"
     inkscape:window-width="1366"
     inkscape:window-height="702"
     inkscape:window-x="0"
     inkscape:window-y="0"
     inkscape:window-maximized="1"
     inkscape:current-layer="svg8"
     height="55px" />
  <path
     fill="#31251c"
     d="m 76.397,18.848 c -2.737,0 -4.775,1.344 -4.775,4.579 0,2.437 1.343,4.129 4.628,4.129 2.784,0 4.676,-1.641 4.676,-4.23 0,-2.934 -1.693,-4.478 -4.529,-4.478 z m -5.471,22.84 c -0.648,0.795 -1.294,1.64 -1.294,2.637 0,1.989 2.536,2.587 6.021,2.587 2.885,0 6.816,-0.202 6.816,-2.885 0,-1.595 -1.892,-1.693 -4.281,-1.843 z m 14.725,-22.69 c 0.895,1.145 1.842,2.737 1.842,5.026 0,5.522 -4.329,8.756 -10.597,8.756 -1.594,0 -3.037,-0.198 -3.932,-0.447 l -1.642,2.637 4.875,0.297 c 8.608,0.549 13.682,0.798 13.682,7.413 0,5.723 -5.024,8.955 -13.682,8.955 -9.006,0 -12.438,-2.289 -12.438,-6.218 0,-2.24 0.996,-3.431 2.737,-5.076 -1.643,-0.694 -2.189,-1.937 -2.189,-3.281 0,-1.095 0.547,-2.09 1.443,-3.036 0.896,-0.944 1.891,-1.891 3.084,-2.985 -2.438,-1.194 -4.278,-3.781 -4.278,-7.464 0,-5.721 3.781,-9.65 11.393,-9.65 2.14,0 3.435,0.197 4.578,0.498 h 9.703 v 4.228 z m 13.332,-9.04 c -2.837,0 -4.479,-1.643 -4.479,-4.48 0,-2.833 1.642,-4.377 4.479,-4.377 2.886,0 4.527,1.543 4.527,4.377 10e-4,2.837 -1.641,4.48 -4.527,4.48 z m -6.42,29.9 v -3.929 l 2.539,-0.348 c 0.696,-0.1 0.795,-0.249 0.795,-0.997 V 19.957 c 0,-0.546 -0.148,-0.896 -0.647,-1.044 l -2.687,-0.946 0.547,-4.028 h 10.301 v 20.646 c 0,0.798 0.048,0.896 0.796,0.997 l 2.538,0.348 v 3.929 H 92.563 Z m 33.857,-1.93 c -2.141,1.043 -5.274,1.99 -8.112,1.99 -5.92,0 -8.158,-2.386 -8.158,-8.011 V 18.872 c 0,-0.297 0,-0.497 -0.399,-0.497 h -3.482 v -4.428 c 4.38,-0.499 6.12,-2.688 6.667,-8.111 h 4.728 v 7.067 c 0,0.347 0,0.498 0.398,0.498 h 7.015 v 4.975 h -7.413 v 11.89 c 0,2.935 0.697,4.079 3.383,4.079 1.395,0 2.836,-0.347 4.03,-0.795 z"
     id="path2" />
  <path
     fill="#f34f29"
     d="m 52.589413,24.974292 -22.749,-22.7480002 c -1.309,-1.31000004 -3.434,-1.31000004 -4.744,0 l -4.724,4.724 5.991,5.9920002 c 1.394,-0.47 2.99,-0.155 4.1,0.956 1.116,1.117 1.429,2.727 0.947,4.125 l 5.775,5.775 c 1.396,-0.481 3.009,-0.17 4.125,0.947 1.56,1.559 1.56,4.086 0,5.646 -1.561,1.56 -4.087,1.56 -5.647,0 -1.173,-1.174 -1.463,-2.897 -0.869,-4.342 l -5.386,-5.386 -0.001,14.174 c 0.381,0.188 0.739,0.438 1.056,0.754 1.56,1.559 1.56,4.085 0,5.647 -1.56,1.559 -4.088,1.559 -5.646,0 -1.56,-1.562 -1.56,-4.088 0,-5.647 0.386,-0.385 0.831,-0.676 1.307,-0.871 v -14.305 c -0.476,-0.194 -0.921,-0.484 -1.307,-0.871 -1.182,-1.181 -1.466,-2.914 -0.86,-4.365 L 18.051413,9.2712918 2.4524132,24.869292 c -1.311,1.311 -1.311,3.436 0,4.747 l 22.7489998,22.748 c 1.31,1.31 3.434,1.31 4.746,0 l 22.642,-22.644 c 1.311,-1.31 1.311,-3.436 0,-4.746 z"
     id="path4" />
  <path
     fill="none"
     d="M 1.58,37.928 H 126.42 V 90.071 H 1.58 Z"
     id="path6" />
</svg>
