<?xml version="1.0" encoding="UTF-8"?>
<svg xmlns="http://www.w3.org/2000/svg" xmlns:xlink="http://www.w3.org/1999/xlink" width="65px" height="65px" viewBox="0 0 65 65" version="1.1">
<g id="surface1">
<path style=" stroke:none;fill-rule:nonzero;fill:rgb(223,73,78);fill-opacity:1;" d="M 0 32.5 L 0 65.003906 L 65.003906 65.003906 L 65.003906 0 L 0 0 Z M 21.84375 19.457031 C 22.613281 19.503906 23.347656 19.78125 24 20.261719 C 24.484375 20.621094 24.996094 21.175781 25.417969 21.8125 C 25.558594 22.023438 25.613281 22.136719 25.664062 22.304688 C 25.757812 22.621094 25.777344 23.109375 25.714844 23.417969 C 25.617188 23.875 25.328125 24.230469 24.957031 24.34375 C 24.777344 24.398438 24.578125 24.390625 24.414062 24.324219 C 24.085938 24.1875 23.816406 23.851562 23.269531 22.886719 C 22.9375 22.292969 22.585938 21.957031 22.144531 21.800781 C 21.953125 21.734375 21.839844 21.714844 21.621094 21.71875 C 21.511719 21.71875 21.378906 21.726562 21.328125 21.734375 C 20.75 21.832031 20.199219 22.132812 19.496094 22.738281 C 19.28125 22.921875 18.785156 23.414062 18.578125 23.652344 C 17.917969 24.402344 17.25 25.328125 16.65625 26.339844 C 15.351562 28.539062 14.394531 30.90625 14 32.894531 C 13.761719 34.097656 13.753906 35.195312 13.980469 35.871094 C 14.074219 36.144531 14.175781 36.320312 14.34375 36.488281 C 14.539062 36.679688 14.714844 36.746094 15.015625 36.730469 C 15.394531 36.714844 15.769531 36.558594 16.367188 36.164062 C 17.523438 35.40625 19.066406 33.816406 20.09375 32.332031 C 20.246094 32.117188 20.445312 31.792969 20.523438 31.636719 C 20.554688 31.574219 20.773438 30.929688 21.09375 29.972656 C 21.378906 29.117188 21.636719 28.363281 21.660156 28.300781 C 21.851562 27.867188 22.113281 27.613281 22.511719 27.484375 C 22.609375 27.453125 22.636719 27.449219 22.8125 27.449219 C 23.03125 27.445312 23.105469 27.460938 23.269531 27.539062 C 23.503906 27.652344 23.65625 27.839844 23.738281 28.125 C 23.765625 28.214844 23.765625 28.246094 23.765625 28.597656 C 23.765625 29.121094 23.722656 29.449219 23.585938 30.011719 C 23.464844 30.523438 23.328125 30.941406 22.992188 31.828125 C 22.75 32.464844 22.601562 32.878906 22.601562 32.910156 C 22.601562 32.921875 22.589844 32.945312 22.578125 32.964844 C 22.535156 33.019531 22.488281 33.160156 22.304688 33.71875 C 22.074219 34.417969 21.992188 34.691406 21.664062 35.773438 C 21.171875 37.417969 20.949219 38.175781 20.582031 39.460938 C 20.382812 40.15625 20.195312 40.789062 20.167969 40.867188 C 20.140625 40.941406 20.070312 41.09375 20.015625 41.199219 C 19.738281 41.746094 19.402344 42.09375 19.066406 42.1875 C 19.035156 42.195312 18.949219 42.203125 18.882812 42.203125 C 18.523438 42.203125 18.285156 42.015625 18.195312 41.667969 C 18.140625 41.460938 18.128906 41.289062 18.136719 40.886719 C 18.140625 40.546875 18.144531 40.496094 18.175781 40.359375 C 18.304688 39.734375 18.710938 38.332031 19.261719 36.621094 C 19.382812 36.242188 19.480469 35.929688 19.480469 35.925781 C 19.476562 35.925781 19.382812 36.023438 19.265625 36.144531 C 18.921875 36.511719 18.320312 37.082031 17.949219 37.40625 C 16.949219 38.261719 15.960938 38.875 15.128906 39.15625 C 14.789062 39.269531 14.519531 39.316406 14.15625 39.328125 C 13.4375 39.351562 12.902344 39.175781 12.359375 38.742188 C 11.515625 38.070312 11.027344 36.902344 10.980469 35.429688 C 10.972656 35.148438 10.996094 34.730469 11.054688 34.195312 C 11.253906 32.3125 11.859375 30.160156 12.78125 28.089844 C 13.601562 26.246094 14.570312 24.625 15.695312 23.21875 C 17.359375 21.140625 19.207031 19.816406 20.855469 19.515625 C 21.179688 19.457031 21.523438 19.4375 21.84375 19.457031 Z M 41.496094 21.078125 C 41.726562 21.140625 41.953125 21.292969 42.070312 21.460938 C 42.113281 21.527344 42.175781 21.675781 42.199219 21.765625 C 42.222656 21.875 42.234375 22.09375 42.222656 22.214844 C 42.195312 22.488281 42.136719 22.648438 41.785156 23.433594 C 40.980469 25.226562 39.003906 30.027344 37.394531 34.09375 C 36.824219 35.535156 36.730469 35.84375 36.730469 36.28125 C 36.730469 36.578125 36.765625 36.644531 36.941406 36.65625 C 37.105469 36.667969 37.300781 36.605469 37.617188 36.445312 C 38.128906 36.191406 38.71875 35.777344 39.535156 35.101562 C 40.121094 34.617188 40.550781 34.226562 41.183594 33.609375 C 41.410156 33.390625 41.617188 33.199219 41.644531 33.179688 C 41.695312 33.148438 41.695312 33.148438 41.789062 32.863281 C 41.835938 32.707031 41.914062 32.464844 41.953125 32.324219 C 41.996094 32.183594 42.09375 31.890625 42.171875 31.671875 C 42.535156 30.675781 42.753906 30.222656 43.070312 29.8125 C 43.308594 29.507812 43.539062 29.398438 43.871094 29.4375 C 44.042969 29.457031 44.132812 29.480469 44.246094 29.535156 C 44.542969 29.679688 44.691406 30.039062 44.644531 30.484375 C 44.625 30.632812 44.5625 31.03125 44.535156 31.160156 L 44.519531 31.246094 L 44.792969 30.972656 C 45.136719 30.636719 45.253906 30.527344 45.535156 30.292969 C 46.125 29.800781 46.621094 29.476562 47.175781 29.230469 C 47.742188 28.980469 48.269531 28.90625 48.84375 29.007812 C 49.140625 29.058594 49.496094 29.195312 49.738281 29.355469 C 50 29.527344 50.25 29.816406 50.363281 30.082031 C 50.507812 30.414062 50.523438 30.835938 50.414062 31.304688 C 50.285156 31.847656 49.878906 32.640625 49.316406 33.449219 C 48.898438 34.046875 48.546875 34.484375 47.492188 35.714844 C 46.914062 36.390625 46.785156 36.546875 46.742188 36.640625 C 46.710938 36.710938 46.710938 36.742188 46.753906 36.824219 C 46.796875 36.910156 46.863281 36.949219 46.992188 36.960938 C 47.121094 36.96875 47.230469 36.941406 47.441406 36.835938 C 47.910156 36.605469 48.679688 36.011719 50.1875 34.722656 C 50.871094 34.140625 51.96875 33.175781 52.65625 32.558594 C 52.984375 32.261719 53.261719 32.125 53.480469 32.140625 C 53.722656 32.164062 53.882812 32.316406 53.972656 32.613281 C 54.09375 33 53.984375 33.601562 53.71875 33.992188 C 53.617188 34.144531 53.539062 34.222656 53.089844 34.621094 C 52.53125 35.121094 52 35.601562 51.472656 36.085938 C 50.148438 37.308594 49.402344 37.90625 48.613281 38.378906 C 47.773438 38.882812 47.09375 39.101562 46.269531 39.140625 C 45.621094 39.167969 45.117188 39.054688 44.761719 38.804688 C 44.476562 38.597656 44.300781 38.335938 44.226562 37.984375 C 44.195312 37.832031 44.195312 37.472656 44.226562 37.320312 C 44.304688 36.957031 44.503906 36.554688 44.894531 35.976562 C 45.226562 35.484375 45.542969 35.078125 46.285156 34.1875 C 46.984375 33.347656 47.300781 32.953125 47.535156 32.617188 C 47.902344 32.101562 48.039062 31.816406 48.027344 31.601562 C 48.019531 31.472656 47.96875 31.417969 47.832031 31.378906 C 47.632812 31.328125 47.261719 31.378906 46.953125 31.496094 C 46.824219 31.546875 46.5625 31.683594 46.398438 31.78125 C 45.453125 32.367188 44.3125 33.664062 43.445312 35.148438 C 43.066406 35.800781 42.859375 36.210938 42.402344 37.246094 C 42.320312 37.429688 42.199219 37.695312 42.132812 37.835938 C 41.984375 38.160156 41.902344 38.34375 41.699219 38.808594 C 41.613281 39.015625 41.488281 39.296875 41.429688 39.429688 C 41.371094 39.5625 41.230469 39.90625 41.125 40.1875 C 40.675781 41.351562 39.914062 43.398438 39.789062 43.757812 C 39.6875 44.0625 39.613281 44.25 39.511719 44.453125 C 39.261719 44.945312 38.980469 45.257812 38.617188 45.433594 C 38.3125 45.582031 37.902344 45.597656 37.578125 45.472656 C 37.308594 45.367188 37.160156 45.199219 37.085938 44.914062 C 37.0625 44.8125 37.058594 44.769531 37.058594 44.527344 C 37.058594 44.238281 37.070312 44.171875 37.136719 43.898438 C 37.203125 43.636719 37.289062 43.402344 37.535156 42.78125 C 37.613281 42.585938 37.675781 42.425781 37.675781 42.421875 C 37.675781 42.414062 38.429688 40.792969 39.1875 39.160156 C 39.460938 38.570312 39.730469 37.976562 39.984375 37.402344 C 40.097656 37.152344 40.191406 36.941406 40.195312 36.933594 C 40.199219 36.925781 40.101562 37.011719 39.980469 37.121094 C 39.117188 37.886719 38.429688 38.375 37.710938 38.722656 C 37.328125 38.90625 37.070312 38.996094 36.726562 39.070312 C 36.503906 39.117188 36.347656 39.132812 36.085938 39.132812 C 35.902344 39.132812 35.816406 39.125 35.703125 39.105469 C 35.363281 39.042969 35.085938 38.898438 34.871094 38.667969 C 34.699219 38.484375 34.578125 38.253906 34.507812 37.980469 C 34.488281 37.902344 34.46875 37.839844 34.46875 37.835938 C 34.464844 37.832031 34.40625 37.871094 34.339844 37.921875 C 33.695312 38.398438 32.875 38.84375 32.332031 39.007812 C 31.828125 39.160156 31.367188 39.171875 31.03125 39.035156 C 30.765625 38.925781 30.527344 38.695312 30.414062 38.421875 C 30.257812 38.042969 30.21875 37.472656 30.304688 36.785156 C 30.320312 36.679688 30.332031 36.570312 30.335938 36.550781 L 30.34375 36.511719 L 30.320312 36.542969 C 30.308594 36.5625 30.253906 36.636719 30.199219 36.714844 C 29.816406 37.246094 29.429688 37.660156 28.9375 38.066406 C 28.332031 38.558594 27.5625 38.929688 26.875 39.058594 C 26.386719 39.148438 25.839844 39.15625 25.453125 39.078125 C 24.894531 38.960938 24.496094 38.65625 24.265625 38.171875 C 24.132812 37.894531 24.074219 37.628906 24.058594 37.25 C 24.046875 36.933594 24.109375 36.472656 24.246094 35.941406 C 24.515625 34.878906 25.039062 33.382812 25.621094 32.023438 C 26.054688 31.019531 26.605469 29.84375 26.75 29.625 C 26.984375 29.261719 27.304688 29.035156 27.65625 28.980469 C 27.847656 28.953125 28.117188 28.976562 28.300781 29.042969 C 28.558594 29.140625 28.769531 29.335938 28.863281 29.574219 C 28.894531 29.65625 28.898438 29.675781 28.898438 29.851562 C 28.898438 30.070312 28.882812 30.140625 28.785156 30.378906 C 28.726562 30.53125 28.65625 30.671875 28.066406 31.8125 C 27.464844 32.984375 27.320312 33.296875 27.085938 33.910156 C 26.773438 34.730469 26.613281 35.394531 26.578125 35.976562 C 26.570312 36.148438 26.59375 36.265625 26.65625 36.402344 C 26.746094 36.578125 26.867188 36.621094 27.183594 36.582031 C 27.8125 36.503906 28.320312 36.210938 29 35.53125 C 29.578125 34.953125 30.121094 34.183594 30.667969 33.175781 C 30.964844 32.625 31.28125 31.96875 31.4375 31.574219 C 31.480469 31.472656 31.582031 31.183594 31.667969 30.933594 C 31.972656 30.039062 32.164062 29.632812 32.445312 29.296875 C 32.546875 29.175781 32.632812 29.105469 32.75 29.046875 C 32.894531 28.972656 32.949219 28.960938 33.15625 28.960938 C 33.324219 28.964844 33.351562 28.96875 33.441406 29 C 33.734375 29.097656 33.96875 29.371094 34.0625 29.726562 C 34.105469 29.882812 34.109375 30.15625 34.074219 30.332031 C 34.003906 30.667969 33.835938 31.101562 33.261719 32.421875 C 32.730469 33.652344 32.527344 34.171875 32.328125 34.84375 C 32.132812 35.492188 32.050781 35.941406 32.046875 36.367188 C 32.042969 36.570312 32.054688 36.628906 32.113281 36.707031 C 32.1875 36.8125 32.382812 36.855469 32.621094 36.820312 C 33.085938 36.746094 33.773438 36.386719 34.40625 35.886719 C 34.578125 35.753906 34.597656 35.738281 34.609375 35.6875 C 34.703125 35.320312 34.804688 34.992188 34.914062 34.695312 C 35.03125 34.371094 35.75 32.527344 36.125 31.578125 C 37.777344 27.394531 39.964844 21.890625 40.007812 21.8125 C 40.179688 21.496094 40.371094 21.308594 40.660156 21.175781 C 40.769531 21.125 40.894531 21.082031 41.007812 21.0625 C 41.105469 21.042969 41.398438 21.054688 41.496094 21.078125 Z M 41.496094 21.078125 "/>
</g>
</svg>
