<?xml version="1.0" encoding="UTF-8"?>
<svg xmlns="http://www.w3.org/2000/svg" xmlns:xlink="http://www.w3.org/1999/xlink" width="65px" height="65px" viewBox="0 0 65 65" version="1.1">
<defs>
<linearGradient id="linear0" gradientUnits="userSpaceOnUse" x1="-3.609" y1="-492.685" x2="-3.609" y2="-480.271" gradientTransform="matrix(2.03125,0,0,2.03125,40.04,1021.497344)">
<stop offset="0.15" style="stop-color:rgb(16.470588%,30.980392%,51.764706%);stop-opacity:1;"/>
<stop offset="0.388" style="stop-color:rgb(16.078431%,30.588235%,50.980392%);stop-opacity:1;"/>
<stop offset="1" style="stop-color:rgb(9.019608%,18.039216%,30.588235%);stop-opacity:1;"/>
</linearGradient>
</defs>
<g id="surface1">
<path style=" stroke:none;fill-rule:nonzero;fill:url(#linear0);" d="M 58.011719 41.085938 C 58.003906 43.765625 55.832031 45.941406 53.148438 45.945312 L 12.269531 45.945312 C 9.585938 45.941406 7.414062 43.765625 7.40625 41.085938 L 7.40625 25.59375 C 7.414062 22.910156 9.585938 20.738281 12.269531 20.730469 L 53.148438 20.730469 C 55.832031 20.738281 58.003906 22.910156 58.011719 25.59375 Z M 58.011719 41.085938 "/>
<path style=" stroke:none;fill-rule:nonzero;fill:rgb(96.470588%,96.470588%,96.470588%);fill-opacity:1;" d="M 49.457031 33.007812 C 51.292969 33.382812 52.625 34.976562 52.664062 36.847656 C 52.707031 37.957031 52.210938 39.015625 51.335938 39.691406 C 50.242188 40.488281 48.910156 40.890625 47.554688 40.828125 C 45.957031 40.808594 44.386719 40.378906 43.003906 39.574219 C 43.03125 39.105469 43.140625 38.644531 43.328125 38.214844 C 43.492188 37.785156 43.730469 37.386719 44.039062 37.042969 C 45.0625 37.636719 46.210938 37.980469 47.390625 38.046875 C 47.75 38.066406 48.105469 37.988281 48.425781 37.816406 C 48.648438 37.695312 48.789062 37.460938 48.785156 37.207031 C 48.785156 36.730469 48.417969 36.371094 47.675781 36.132812 L 46.351562 35.632812 C 44.34375 34.902344 43.339844 33.707031 43.339844 32.054688 C 43.292969 30.949219 43.761719 29.886719 44.605469 29.175781 C 45.546875 28.34375 46.757812 27.878906 48.015625 27.859375 C 48.800781 27.871094 49.585938 27.972656 50.351562 28.160156 C 51.085938 28.390625 51.789062 28.710938 52.445312 29.117188 C 52.46875 29.621094 52.378906 30.121094 52.183594 30.585938 C 52.039062 31.027344 51.769531 31.421875 51.410156 31.71875 C 50.359375 31.191406 49.214844 30.882812 48.039062 30.8125 C 47.777344 30.792969 47.515625 30.871094 47.304688 31.027344 C 47.140625 31.160156 47.046875 31.363281 47.050781 31.574219 C 47.050781 31.957031 47.355469 32.257812 47.96875 32.480469 L 49.464844 33.007812 Z M 49.457031 33.007812 "/>
<path style=" stroke:none;fill-rule:nonzero;fill:rgb(96.470588%,96.470588%,96.470588%);fill-opacity:1;" d="M 38.796875 33.007812 C 40.632812 33.382812 41.960938 34.976562 42 36.847656 C 42.042969 37.953125 41.550781 39.011719 40.675781 39.691406 C 39.582031 40.488281 38.246094 40.890625 36.894531 40.828125 C 35.292969 40.808594 33.726562 40.378906 32.339844 39.574219 C 32.371094 39.105469 32.480469 38.644531 32.667969 38.214844 C 32.828125 37.78125 33.070312 37.386719 33.378906 37.042969 C 34.398438 37.636719 35.546875 37.980469 36.726562 38.046875 C 37.085938 38.066406 37.445312 37.988281 37.761719 37.816406 C 37.988281 37.695312 38.125 37.460938 38.125 37.207031 C 38.125 36.730469 37.753906 36.371094 37.015625 36.132812 L 35.6875 35.632812 C 33.683594 34.902344 32.679688 33.707031 32.679688 32.054688 C 32.632812 30.949219 33.097656 29.886719 33.945312 29.175781 C 34.886719 28.34375 36.09375 27.878906 37.351562 27.859375 C 38.136719 27.871094 38.921875 27.972656 39.6875 28.160156 C 40.421875 28.390625 41.125 28.710938 41.78125 29.117188 C 41.804688 29.621094 41.714844 30.121094 41.519531 30.585938 C 41.375 31.027344 41.105469 31.421875 40.746094 31.71875 C 39.695312 31.191406 38.546875 30.882812 37.371094 30.8125 C 37.109375 30.792969 36.847656 30.871094 36.636719 31.027344 C 36.472656 31.160156 36.382812 31.363281 36.386719 31.574219 C 36.386719 31.957031 36.691406 32.257812 37.300781 32.480469 Z M 38.796875 33.007812 "/>
<path style=" stroke:none;fill-rule:nonzero;fill:rgb(96.470588%,96.470588%,96.470588%);fill-opacity:1;" d="M 31.003906 33.175781 C 31.011719 32.484375 30.894531 31.796875 30.65625 31.144531 C 30.4375 30.546875 30.097656 30.003906 29.65625 29.546875 C 29.207031 29.089844 28.671875 28.734375 28.078125 28.496094 C 27.433594 28.148438 26.722656 27.929688 25.992188 27.859375 C 25.148438 27.921875 24.332031 28.171875 23.597656 28.59375 C 22.941406 28.890625 22.363281 29.339844 21.910156 29.902344 C 21.453125 30.488281 21.117188 31.15625 20.921875 31.871094 C 20.699219 32.675781 20.589844 33.507812 20.597656 34.34375 C 20.589844 35.199219 20.679688 36.058594 20.859375 36.894531 C 21.015625 37.628906 21.324219 38.320312 21.765625 38.925781 C 22.199219 39.503906 22.769531 39.964844 23.425781 40.261719 C 24.222656 40.632812 25.089844 40.824219 25.96875 40.824219 C 27.652344 40.851562 29.304688 40.34375 30.6875 39.378906 C 30.609375 38.558594 30.261719 37.789062 29.703125 37.183594 C 29.136719 37.402344 28.554688 37.578125 27.964844 37.714844 C 27.527344 37.8125 27.082031 37.867188 26.632812 37.875 C 26.019531 37.933594 25.414062 37.71875 24.976562 37.285156 C 24.613281 36.847656 24.417969 36.292969 24.425781 35.722656 L 30.6875 35.722656 C 30.914062 34.890625 31.019531 34.035156 31.003906 33.175781 Z M 24.40625 33.339844 C 24.410156 32.640625 24.558594 31.949219 24.851562 31.308594 C 25.109375 30.945312 25.539062 30.742188 25.984375 30.773438 C 26.453125 30.746094 26.902344 30.960938 27.167969 31.347656 C 27.445312 31.882812 27.582031 32.480469 27.5625 33.085938 L 27.5625 33.347656 L 24.40625 33.347656 Z M 24.40625 33.339844 "/>
<path style="fill-rule:nonzero;fill:rgb(96.470588%,96.470588%,96.470588%);fill-opacity:1;stroke-width:0.25;stroke-linecap:butt;stroke-linejoin:miter;stroke:rgb(25.098039%,25.098039%,25.098039%);stroke-opacity:1;stroke-miterlimit:10;" d="M 29.180769 17.2 C 28.823077 17.521154 28.628846 17.984615 28.65 18.465385 L 28.65 20.515385 C 28.696154 21.115385 28.440385 21.7 27.967308 22.073077 C 27.488462 22.426923 26.909615 22.619231 26.313462 22.621154 L 25.940385 22.621154 L 25.940385 21.594231 C 26.165385 21.540385 26.371154 21.425 26.534615 21.259615 C 26.819231 20.986538 26.971154 20.605769 26.953846 20.213462 L 26.953846 18.555769 C 26.919231 18.1 27.007692 17.642308 27.211538 17.232692 C 27.519231 16.840385 27.936538 16.548077 28.411538 16.394231 C 27.842308 16.175 27.371154 15.755769 27.086538 15.215385 C 26.965385 14.840385 26.919231 14.444231 26.951923 14.051923 L 26.951923 12.532692 C 26.975 12.146154 26.842308 11.767308 26.586538 11.478846 C 26.409615 11.307692 26.182692 11.198077 25.938462 11.165385 L 25.938462 10.205769 C 26.382692 10.205769 26.607692 10.205769 26.865385 10.205769 C 27.248077 10.230769 27.607692 10.386538 27.888462 10.646154 C 28.211538 10.905769 28.448077 11.257692 28.561538 11.655769 C 28.626923 11.882692 28.655769 12.119231 28.648077 12.355769 L 28.648077 14.113462 C 28.615385 14.623077 28.796154 15.125 29.148077 15.496154 C 29.390385 15.721154 29.684615 15.884615 30.001923 15.975 L 30.001923 16.769231 C 29.698077 16.842308 29.417308 16.988462 29.182692 17.194231 Z M 29.180769 17.2 " transform="matrix(2.03125,0,0,2.03125,0,0)"/>
<path style="fill-rule:nonzero;fill:rgb(96.470588%,96.470588%,96.470588%);fill-opacity:1;stroke-width:0.25;stroke-linecap:butt;stroke-linejoin:miter;stroke:rgb(25.098039%,25.098039%,25.098039%);stroke-opacity:1;stroke-miterlimit:10;" d="M 5.594231 10.205769 L 5.259615 10.205769 C 4.878846 10.232692 4.517308 10.388462 4.236538 10.648077 C 3.896154 10.890385 3.657692 11.25 3.563462 11.657692 C 3.528846 11.888462 3.515385 12.123077 3.526923 12.357692 L 3.526923 14.113462 C 3.544231 14.630769 3.346154 15.132692 2.980769 15.5 C 2.688462 15.721154 2.353846 15.882692 2 15.976923 L 2 16.769231 C 2.342308 16.846154 2.663462 16.990385 2.946154 17.196154 C 3.317308 17.511538 3.528846 17.975 3.523077 18.461538 L 3.523077 20.511538 C 3.461538 21.105769 3.7 21.690385 4.159615 22.069231 C 4.638462 22.425 5.217308 22.617308 5.813462 22.619231 L 6.234615 22.619231 L 6.234615 21.594231 C 5.996154 21.538462 5.775 21.423077 5.592308 21.259615 C 5.325 20.980769 5.188462 20.598077 5.221154 20.213462 L 5.221154 18.557692 C 5.242308 18.096154 5.136538 17.638462 4.915385 17.234615 C 4.607692 16.840385 4.190385 16.55 3.715385 16.396154 C 4.284615 16.175 4.755769 15.757692 5.040385 15.217308 C 5.180769 14.846154 5.244231 14.45 5.223077 14.053846 L 5.223077 12.534615 C 5.186538 12.153846 5.301923 11.776923 5.540385 11.480769 C 5.705769 11.344231 5.903846 11.25 6.115385 11.209615 L 6.542308 11.209615 L 6.542308 10.205769 Z M 5.594231 10.205769 " transform="matrix(2.03125,0,0,2.03125,0,0)"/>
<path style=" stroke:none;fill-rule:nonzero;fill:rgb(96.470588%,96.470588%,96.470588%);fill-opacity:1;" d="M 19.371094 37.636719 L 18.722656 37.636719 C 18.015625 37.636719 17.75 37.265625 17.75 36.519531 L 17.75 22.789062 C 17.789062 22.160156 17.59375 21.542969 17.203125 21.050781 C 16.898438 20.714844 16.371094 20.722656 15.613281 20.722656 L 13.972656 20.722656 L 13.972656 37.1875 C 13.90625 38.082031 14.160156 38.976562 14.6875 39.703125 C 15.308594 40.300781 16.160156 40.589844 17.015625 40.503906 C 17.878906 40.492188 18.738281 40.414062 19.589844 40.261719 C 19.65625 39.921875 19.679688 39.574219 19.664062 39.230469 C 19.664062 38.6875 19.566406 38.148438 19.375 37.640625 Z M 19.371094 37.636719 "/>
</g>
</svg>
