<?xml version="1.0" encoding="UTF-8"?>
<svg xmlns="http://www.w3.org/2000/svg" xmlns:xlink="http://www.w3.org/1999/xlink" width="87px" height="65px" viewBox="0 0 86 65" version="1.1">
<g id="surface1">
<path style=" stroke:none;fill-rule:nonzero;fill:rgb(80.392157%,40.392157%,60%);fill-opacity:1;" d="M 74 37.414062 C 71.007812 37.429688 68.410156 38.15625 66.230469 39.230469 C 65.433594 37.632812 64.632812 36.214844 64.492188 35.171875 C 64.335938 33.957031 64.148438 33.214844 64.335938 31.761719 C 64.523438 30.308594 65.371094 28.242188 65.355469 28.082031 C 65.339844 27.925781 65.164062 27.183594 63.441406 27.167969 C 61.71875 27.152344 60.230469 27.5 60.058594 27.957031 C 59.886719 28.414062 59.558594 29.457031 59.339844 30.53125 C 59.039062 32.109375 55.890625 37.746094 54.089844 40.695312 C 53.511719 39.542969 53.011719 38.535156 52.898438 37.730469 C 52.742188 36.511719 52.554688 35.773438 52.742188 34.320312 C 52.929688 32.867188 53.777344 30.800781 53.761719 30.640625 C 53.746094 30.484375 53.574219 29.742188 51.851562 29.726562 C 50.128906 29.710938 48.640625 30.058594 48.46875 30.515625 C 48.292969 30.972656 48.105469 32.046875 47.746094 33.089844 C 47.386719 34.128906 43.203125 43.539062 42.105469 45.96875 C 41.542969 47.214844 41.058594 48.210938 40.714844 48.890625 C 40.714844 48.890625 40.699219 48.9375 40.648438 49.015625 C 40.351562 49.601562 40.179688 49.917969 40.179688 49.917969 C 40.179688 49.917969 40.179688 49.917969 40.179688 49.933594 C 39.945312 50.359375 39.695312 50.753906 39.570312 50.753906 C 39.476562 50.753906 39.304688 49.617188 39.601562 48.070312 C 40.226562 44.800781 41.714844 39.71875 41.699219 39.542969 C 41.699219 39.449219 41.980469 38.566406 40.730469 38.109375 C 39.507812 37.648438 39.066406 38.40625 38.957031 38.40625 C 38.847656 38.40625 38.769531 38.675781 38.769531 38.675781 C 38.769531 38.675781 40.132812 32.960938 36.171875 32.960938 C 33.695312 32.960938 30.28125 35.691406 28.589844 38.15625 C 27.523438 38.738281 25.25 39.988281 22.824219 41.328125 C 21.898438 41.847656 20.945312 42.371094 20.050781 42.859375 C 19.988281 42.796875 19.925781 42.71875 19.863281 42.65625 C 15.070312 37.492188 6.203125 33.847656 6.578125 26.914062 C 6.71875 24.390625 7.582031 17.757812 23.605469 9.707031 C 36.796875 3.15625 47.292969 4.972656 49.109375 9 C 51.710938 14.746094 43.484375 25.414062 29.855469 26.964844 C 24.65625 27.546875 21.929688 25.527344 21.242188 24.769531 C 20.519531 23.980469 20.410156 23.933594 20.144531 24.089844 C 19.707031 24.328125 19.988281 25.035156 20.144531 25.449219 C 20.550781 26.519531 22.226562 28.414062 25.0625 29.347656 C 27.570312 30.167969 33.664062 30.625 41.042969 27.753906 C 49.296875 24.53125 55.75 15.582031 53.855469 8.082031 C 51.960938 0.472656 39.429688 -2.035156 27.570312 2.210938 C 20.519531 4.734375 12.875 8.714844 7.378906 13.890625 C 0.847656 20.046875 -0.1875 25.398438 0.234375 27.640625 C 1.753906 35.597656 12.640625 40.777344 16.996094 44.613281 C 16.777344 44.738281 16.574219 44.847656 16.402344 44.945312 C 14.222656 46.03125 5.921875 50.40625 3.855469 55.03125 C 1.503906 60.273438 4.230469 64.027344 6.03125 64.535156 C 11.625 66.097656 17.371094 63.289062 20.457031 58.644531 C 23.542969 54.003906 23.167969 47.972656 21.742188 45.210938 C 21.726562 45.179688 21.710938 45.148438 21.679688 45.117188 C 22.242188 44.785156 22.824219 44.4375 23.386719 44.105469 C 24.5 43.445312 25.597656 42.828125 26.535156 42.324219 C 26.003906 43.792969 25.613281 45.542969 25.425781 48.070312 C 25.1875 51.035156 26.394531 54.890625 27.976562 56.40625 C 28.683594 57.066406 29.511719 57.082031 30.046875 57.082031 C 31.894531 57.082031 32.722656 55.535156 33.648438 53.703125 C 34.777344 51.464844 35.792969 48.859375 35.792969 48.859375 C 35.792969 48.859375 34.523438 55.898438 37.972656 55.898438 C 39.226562 55.898438 40.492188 54.257812 41.058594 53.421875 L 41.058594 53.4375 C 41.058594 53.4375 41.089844 53.390625 41.152344 53.277344 C 41.277344 53.074219 41.355469 52.945312 41.355469 52.945312 L 41.355469 52.914062 C 41.855469 52.03125 42.984375 50.027344 44.660156 46.695312 C 46.820312 42.402344 48.90625 37.035156 48.90625 37.035156 C 48.90625 37.035156 49.09375 38.34375 49.734375 40.523438 C 50.113281 41.800781 50.894531 43.207031 51.523438 44.566406 C 51.019531 45.273438 50.707031 45.667969 50.707031 45.667969 C 50.707031 45.667969 50.707031 45.667969 50.722656 45.683594 C 50.316406 46.222656 49.875 46.804688 49.390625 47.375 C 47.683594 49.425781 45.648438 51.777344 45.367188 52.457031 C 45.035156 53.261719 45.113281 53.847656 45.742188 54.320312 C 46.195312 54.667969 47.011719 54.714844 47.839844 54.667969 C 49.375 54.558594 50.457031 54.179688 50.988281 53.941406 C 51.820312 53.640625 52.789062 53.183594 53.699219 52.503906 C 55.375 51.257812 56.394531 49.472656 56.300781 47.121094 C 56.253906 45.828125 55.828125 44.53125 55.3125 43.316406 C 55.46875 43.097656 55.609375 42.875 55.765625 42.65625 C 58.414062 38.753906 60.464844 34.476562 60.464844 34.476562 C 60.464844 34.476562 60.652344 35.789062 61.296875 37.964844 C 61.609375 39.070312 62.253906 40.269531 62.816406 41.4375 C 60.324219 43.476562 58.789062 45.84375 58.242188 47.390625 C 57.253906 50.261719 58.023438 51.558594 59.480469 51.859375 C 60.136719 52 61.078125 51.683594 61.765625 51.382812 C 62.644531 51.101562 63.675781 50.609375 64.664062 49.882812 C 66.339844 48.636719 67.953125 46.902344 67.859375 44.550781 C 67.8125 43.476562 67.53125 42.417969 67.140625 41.390625 C 69.253906 40.507812 71.980469 40.019531 75.457031 40.429688 C 82.914062 41.3125 84.386719 46 84.105469 47.972656 C 83.824219 49.949219 82.257812 51.019531 81.738281 51.351562 C 81.222656 51.683594 81.050781 51.792969 81.097656 52.03125 C 81.160156 52.378906 81.410156 52.363281 81.847656 52.300781 C 82.460938 52.1875 85.765625 50.707031 85.90625 47.074219 C 86.140625 42.433594 81.753906 37.367188 74 37.414062 Z M 16.480469 56.957031 C 14.003906 59.671875 10.558594 60.699219 9.070312 59.828125 C 7.472656 58.898438 8.097656 54.890625 11.136719 52.015625 C 12.984375 50.261719 15.367188 48.636719 16.949219 47.644531 C 17.308594 47.421875 17.84375 47.105469 18.484375 46.710938 C 18.59375 46.648438 18.65625 46.617188 18.65625 46.617188 C 18.78125 46.539062 18.90625 46.460938 19.03125 46.378906 C 20.144531 50.484375 19.078125 54.097656 16.480469 56.957031 Z M 34.492188 44.613281 C 33.632812 46.726562 31.832031 52.140625 30.734375 51.84375 C 29.792969 51.589844 29.214844 47.484375 30.546875 43.429688 C 31.21875 41.390625 32.644531 38.960938 33.476562 38.011719 C 34.824219 36.496094 36.3125 35.992188 36.671875 36.609375 C 37.125 37.414062 35.027344 43.285156 34.492188 44.613281 Z M 49.359375 51.777344 C 49 51.96875 48.65625 52.09375 48.5 52 C 48.390625 51.9375 48.65625 51.683594 48.65625 51.683594 C 48.65625 51.683594 50.519531 49.664062 51.253906 48.746094 C 51.679688 48.210938 52.179688 47.578125 52.710938 46.871094 L 52.710938 47.074219 C 52.710938 49.488281 50.394531 51.117188 49.359375 51.777344 Z M 60.828125 49.144531 C 60.558594 48.953125 60.605469 48.320312 61.5 46.347656 C 61.84375 45.574219 62.660156 44.28125 64.054688 43.035156 C 64.210938 43.539062 64.320312 44.027344 64.304688 44.484375 C 64.289062 47.53125 62.125 48.667969 60.828125 49.144531 Z M 60.828125 49.144531 "/>
</g>
</svg>
