<svg width="57.039" height="65" xmlns="http://www.w3.org/2000/svg"><path fill="#5b4282" d="M0 57.902h2.179c.992 0 1.713.142 2.162.424.448.283.672.732.672 1.349 0 .418-.098.76-.294 1.029a1.18 1.18 0 01-.784.484v.047c.444.1.764.285.96.556.197.271.295.632.295 1.082 0 .639-.23 1.137-.692 1.495-.461.357-1.088.536-1.88.536H0zm1.484 2.773h.862c.402 0 .694-.062.874-.186.18-.125.27-.33.27-.618 0-.268-.097-.46-.293-.577-.197-.117-.507-.175-.932-.175h-.78zm0 1.178v1.825h.968c.408 0 .71-.078.905-.235.196-.156.292-.395.292-.718 0-.58-.415-.872-1.245-.872zm11.46-.46c0 1.16-.288 2.05-.862 2.673-.574.622-1.398.934-2.47.934-1.074 0-1.897-.312-2.472-.934-.575-.623-.862-1.516-.862-2.682 0-1.165.288-2.055.865-2.67.576-.614 1.402-.922 2.478-.922 1.076 0 1.899.31 2.469.93.569.618.854 1.51.854 2.671zm-5.11 0c0 .783.149 1.372.446 1.768.297.395.74.593 1.331.593 1.184 0 1.777-.787 1.777-2.36 0-1.578-.59-2.366-1.767-2.366-.591 0-1.037.198-1.337.596-.3.398-.45.987-.45 1.77zm12.916 0c0 1.16-.287 2.05-.862 2.673-.574.622-1.398.934-2.47.934-1.073 0-1.897-.312-2.471-.934-.575-.623-.862-1.516-.862-2.682 0-1.165.288-2.055.864-2.67.577-.614 1.402-.922 2.478-.922 1.076 0 1.899.31 2.469.93.569.618.854 1.51.854 2.671zm-5.11 0c0 .783.148 1.372.446 1.768.297.395.74.593 1.33.593 1.185 0 1.777-.787 1.777-2.36 0-1.578-.589-2.366-1.767-2.366-.59 0-1.036.198-1.336.596-.3.398-.45.987-.45 1.77zm9.262 3.51h-1.485v-5.765h-1.901v-1.236h5.287v1.236h-1.901zm7.11-1.943c0 .632-.227 1.13-.682 1.494-.455.364-1.088.546-1.898.546-.747 0-1.408-.14-1.983-.421v-1.38c.473.21.873.36 1.2.446.327.086.626.13.898.13.326 0 .575-.063.75-.187.174-.125.26-.31.26-.556a.616.616 0 00-.114-.366 1.282 1.282 0 00-.338-.31c-.149-.098-.45-.256-.907-.473-.428-.201-.749-.394-.963-.58a2.177 2.177 0 01-.512-.646 1.846 1.846 0 01-.192-.862c0-.619.21-1.106.63-1.46.42-.355 1-.532 1.74-.532a4.1 4.1 0 011.042.13c.33.086.676.207 1.037.363l-.479 1.154a7.05 7.05 0 00-.927-.32 2.98 2.98 0 00-.72-.092c-.281 0-.497.066-.647.197a.647.647 0 00-.225.512c0 .131.03.245.091.343a.99.99 0 00.29.282c.132.092.446.255.94.492.655.313 1.104.626 1.346.94.243.315.364.699.364 1.156zm3.97 1.944H34.5v-5.766h-1.902v-1.236h5.287v1.236h-1.901zm4.464-2.687v2.687h-1.484v-7.002h2.04c.951 0 1.655.173 2.111.52.457.346.685.872.685 1.578 0 .412-.113.778-.34 1.099-.226.32-.547.572-.962.754 1.053 1.574 1.74 2.59 2.06 3.05h-1.648l-1.671-2.686h-.79zm0-1.207h.48c.468 0 .815-.078 1.038-.234.224-.157.336-.403.336-.738 0-.332-.115-.568-.343-.709-.228-.14-.582-.21-1.06-.21h-.45zm9.276 3.894l-.508-1.667h-2.552l-.508 1.667h-1.6l2.471-7.03h1.815l2.48 7.03zm-.862-2.912a538.19 538.19 0 01-.793-2.562 7.256 7.256 0 01-.127-.47c-.105.41-.407 1.42-.905 3.032zm8.18-1.906c0 .754-.236 1.33-.707 1.728-.47.4-1.14.6-2.01.6h-.636v2.49h-1.484v-7.002h2.236c.85 0 1.495.183 1.937.548.442.366.663.911.663 1.636zm-3.353 1.111h.489c.456 0 .798-.09 1.024-.27.227-.181.34-.444.34-.788 0-.348-.095-.605-.285-.771-.19-.166-.488-.25-.893-.25h-.675v2.08zM33.73 28.671c-1.038-.341-2.533-.397-4.485-.397h-7.008v10.472h7.552c1.31 0 2.23-.13 2.76-.229a6.602 6.602 0 002.341-.877c.627-.39 1.143-.979 1.547-1.725.404-.745.607-1.616.607-2.592 0-1.143-.293-2.084-.878-2.927s-1.397-1.383-2.436-1.725zm-1.077-4.509c1.032-.307 1.81-.862 2.331-1.572.524-.71.785-1.625.785-2.699 0-1.017-.244-1.924-.732-2.698s-1.185-1.3-2.09-1.585c-.907-.285-2.461-.424-4.664-.424h-6.046v9.425h6.548c1.799 0 3.088-.209 3.868-.447zM56.27 7.396A7.396 7.396 0 0048.873 0H8.166A7.396 7.396 0 00.769 7.396v40.709A7.396 7.396 0 008.166 55.5h40.707a7.396 7.396 0 007.397-7.396zm-15.933 29.92c-.606 1.234-1.355 2.185-2.247 2.855a9.485 9.485 0 01-3.356 1.622 19.908 19.908 0 01-4.945.618H18.048V11.52H29.6c2.342 0 4.22.325 5.634.945a7.267 7.267 0 013.326 2.87c.8 1.29 1.202 2.643 1.202 4.05 0 1.31-.356 2.546-1.066 3.703-.711 1.157-1.785 2.092-3.22 2.802 1.853.544 3.279 1.472 4.275 2.782.997 1.31 1.495 2.858 1.495 4.642 0 1.436-.303 2.77-.91 4.004z"/></svg>