<svg xmlns="http://www.w3.org/2000/svg" width="65" height="65"><path d="M0 32.5v32.504h65.004V0H0zm21.844-13.043c.77.047 1.504.324 2.156.805.484.36.996.914 1.418 1.55.14.211.195.325.246.493.094.316.113.804.05 1.113-.097.457-.386.812-.757.926a.832.832 0 01-.543-.02c-.328-.137-.598-.472-1.144-1.437-.332-.594-.684-.93-1.125-1.086a1.283 1.283 0 00-.524-.082c-.11 0-.242.008-.293.015-.578.098-1.129.399-1.832 1.004-.215.184-.71.676-.918.914-.66.75-1.328 1.676-1.922 2.688-1.304 2.2-2.261 4.566-2.656 6.555-.238 1.203-.246 2.3-.02 2.976.094.274.196.45.364.617.195.192.37.258.672.242.379-.015.754-.171 1.351-.566 1.156-.758 2.7-2.348 3.727-3.832.152-.215.351-.539.43-.695.03-.063.25-.707.57-1.664.285-.856.543-1.61.566-1.672.192-.434.453-.688.852-.817.097-.03.125-.035.3-.035.22-.004.293.012.458.09.234.113.386.3.468.586.028.09.028.121.028.473 0 .523-.043.851-.18 1.414-.121.511-.258.93-.594 1.816-.242.637-.39 1.05-.39 1.082a.151.151 0 01-.024.055c-.043.055-.09.195-.273.754-.23.699-.313.972-.64 2.054a261.022 261.022 0 00-1.083 3.688c-.2.695-.387 1.328-.414 1.406a3.74 3.74 0 01-.152.332c-.278.547-.614.895-.95.989a1.033 1.033 0 01-.183.015c-.36 0-.598-.187-.688-.535-.054-.207-.066-.379-.058-.781.004-.34.008-.39.039-.528.129-.625.535-2.027 1.086-3.738.12-.379.218-.691.218-.695a6.98 6.98 0 00-.214.219 22.2 22.2 0 01-1.317 1.261c-1 .856-1.988 1.469-2.82 1.75-.34.114-.61.16-.973.172-.719.024-1.254-.152-1.797-.586-.843-.672-1.332-1.84-1.379-3.312-.007-.282.016-.7.075-1.235.199-1.883.804-4.035 1.726-6.105.82-1.844 1.79-3.465 2.914-4.871 1.664-2.078 3.512-3.403 5.16-3.703a4.23 4.23 0 01.989-.059zm19.652 1.621c.23.063.457.215.574.383.043.066.106.215.13.305.023.109.034.328.023.449-.028.273-.086.433-.438 1.219-.805 1.793-2.781 6.593-4.39 10.66-.57 1.441-.665 1.75-.665 2.187 0 .297.036.364.211.375.164.012.36-.05.676-.21.512-.255 1.102-.669 1.918-1.344a24.564 24.564 0 001.649-1.493c.226-.218.433-.41.46-.43.051-.03.051-.03.145-.316.047-.156.125-.398.164-.539.043-.14.14-.433.219-.652.363-.996.582-1.45.898-1.86.239-.304.47-.414.801-.375.172.02.262.043.375.098.297.145.445.504.399.95-.02.148-.083.546-.11.675l-.015.086.273-.273c.344-.336.46-.446.742-.68.59-.492 1.086-.816 1.64-1.063.567-.25 1.095-.324 1.669-.222.297.05.652.187.894.347.262.172.512.461.625.727.145.332.16.754.051 1.223-.129.543-.535 1.336-1.098 2.144-.418.598-.77 1.035-1.824 2.266-.578.676-.707.832-.75.926-.031.07-.031.101.012.183.043.086.11.125.238.137.13.008.238-.02.45-.125.468-.23 1.238-.824 2.745-2.113.684-.582 1.782-1.547 2.47-2.164.327-.297.605-.434.823-.418.243.023.403.175.493.472.12.387.011.989-.254 1.38-.102.152-.18.23-.63.628-.558.5-1.089.98-1.616 1.465-1.325 1.223-2.07 1.82-2.86 2.293-.84.504-1.52.723-2.343.762-.649.027-1.153-.086-1.508-.336a1.299 1.299 0 01-.535-.82 2.364 2.364 0 010-.665c.078-.363.277-.765.668-1.343.332-.493.648-.899 1.39-1.79.7-.84 1.016-1.234 1.25-1.57.367-.515.504-.8.492-1.015-.007-.13-.058-.184-.195-.223-.2-.05-.57 0-.879.117-.129.05-.39.188-.555.285-.945.586-2.086 1.883-2.953 3.367-.379.653-.586 1.063-1.043 2.098-.082.184-.203.45-.27.59-.148.324-.23.508-.433.973-.086.207-.21.488-.27.62-.058.133-.199.477-.304.758a217.18 217.18 0 00-1.336 3.57 4.927 4.927 0 01-.277.696c-.25.492-.532.805-.895.98a1.367 1.367 0 01-1.039.04.746.746 0 01-.492-.559c-.023-.102-.027-.144-.027-.387 0-.289.011-.355.078-.629.066-.261.152-.496.398-1.117.078-.195.14-.355.14-.36 0-.007.755-1.628 1.513-3.26.273-.59.542-1.184.796-1.759.114-.25.207-.46.211-.468a3.544 3.544 0 00-.215.187c-.863.766-1.55 1.254-2.27 1.602a4.04 4.04 0 01-.983.347 2.743 2.743 0 01-.641.063c-.184 0-.27-.008-.383-.028a1.462 1.462 0 01-.832-.437 1.553 1.553 0 01-.363-.688c-.02-.078-.04-.14-.04-.144a.624.624 0 00-.128.086c-.645.476-1.465.922-2.008 1.086-.504.152-.965.164-1.3.027a1.17 1.17 0 01-.618-.613c-.156-.379-.195-.95-.11-1.637.016-.105.028-.215.032-.234l.008-.04-.024.032c-.011.02-.066.094-.12.172-.384.531-.77.945-1.262 1.351-.606.493-1.375.864-2.063.993-.488.09-1.035.097-1.422.02-.558-.118-.957-.423-1.187-.907-.133-.277-.192-.543-.207-.922-.012-.316.05-.777.187-1.309.27-1.062.793-2.558 1.375-3.918.434-1.003.984-2.18 1.129-2.398.234-.363.555-.59.906-.645.192-.027.461-.003.645.063a.968.968 0 01.562.531c.032.082.035.102.035.278 0 .218-.015.289-.113.527-.058.152-.129.293-.719 1.433-.601 1.172-.746 1.485-.98 2.098-.313.82-.473 1.485-.508 2.067a.84.84 0 00.078.425c.09.176.211.22.528.18.628-.078 1.136-.371 1.816-1.05.578-.579 1.121-1.348 1.668-2.356.297-.551.613-1.207.77-1.602.042-.101.144-.39.23-.64.305-.895.496-1.301.777-1.637a.898.898 0 01.305-.25c.145-.074.2-.086.406-.086.168.004.196.008.285.039.293.098.528.371.621.727.043.156.047.43.012.605-.07.336-.238.77-.812 2.09-.532 1.23-.735 1.75-.934 2.422-.195.648-.277 1.097-.281 1.523-.004.203.008.262.066.34.075.105.27.148.508.113.465-.074 1.152-.433 1.785-.933.172-.133.192-.149.203-.2.094-.367.196-.695.305-.992.117-.324.836-2.168 1.211-3.117 1.652-4.183 3.84-9.687 3.883-9.765.172-.317.363-.504.652-.637.11-.051.235-.094.348-.113.097-.02.39-.008.488.015zm0 0" fill="#df494e"/></svg>