<svg xmlns="http://www.w3.org/2000/svg" width="65" height="65"><defs><linearGradient id="a" gradientUnits="userSpaceOnUse" x1="-3.609" y1="-492.685" x2="-3.609" y2="-480.271" gradientTransform="translate(40.04 1021.497) scale(2.03125)"><stop offset=".15" stop-color="#2a4f84"/><stop offset=".388" stop-color="#294e82"/><stop offset="1" stop-color="#172e4e"/></linearGradient></defs><path d="M58.012 41.086a4.873 4.873 0 01-4.864 4.86H12.27a4.873 4.873 0 01-4.864-4.86V25.594a4.876 4.876 0 014.864-4.864h40.878a4.876 4.876 0 014.864 4.864zm0 0" fill="url(#a)"/><path d="M49.457 33.008a4.007 4.007 0 013.207 3.84 3.425 3.425 0 01-1.328 2.843 5.953 5.953 0 01-3.781 1.137 9.277 9.277 0 01-4.551-1.254 3.98 3.98 0 01.324-1.36c.164-.429.402-.827.711-1.171a7.522 7.522 0 003.352 1.004c.359.02.714-.059 1.035-.23a.684.684 0 00.36-.61c0-.477-.368-.836-1.11-1.074l-1.324-.5c-2.008-.73-3.012-1.926-3.012-3.578a3.567 3.567 0 011.265-2.88 5.272 5.272 0 013.41-1.316c.786.012 1.57.114 2.337.301a9.22 9.22 0 012.093.957 3.38 3.38 0 01-.261 1.469 2.47 2.47 0 01-.774 1.133 8.662 8.662 0 00-3.37-.907 1.1 1.1 0 00-.735.215.689.689 0 00-.254.547c0 .383.304.684.918.906l1.496.528zm-10.66 0A4.003 4.003 0 0142 36.848a3.431 3.431 0 01-1.324 2.843 5.96 5.96 0 01-3.781 1.137 9.291 9.291 0 01-4.555-1.254c.031-.469.14-.93.328-1.36.16-.433.402-.827.71-1.171a7.491 7.491 0 003.349 1.004c.359.02.718-.059 1.035-.23a.688.688 0 00.363-.61c0-.477-.371-.836-1.11-1.074l-1.328-.5c-2.003-.73-3.007-1.926-3.007-3.578a3.555 3.555 0 011.265-2.88 5.262 5.262 0 013.407-1.316c.785.012 1.57.114 2.336.301a9.22 9.22 0 012.093.957 3.38 3.38 0 01-.261 1.469 2.47 2.47 0 01-.774 1.133 8.68 8.68 0 00-3.375-.907 1.1 1.1 0 00-.734.215.685.685 0 00-.25.547c0 .383.304.684.914.906zm-7.793.168a5.728 5.728 0 00-.348-2.031 4.546 4.546 0 00-1-1.598 4.62 4.62 0 00-1.578-1.05 5.515 5.515 0 00-2.086-.638 5.637 5.637 0 00-2.394.735 4.608 4.608 0 00-1.688 1.308 5.6 5.6 0 00-.988 1.97 8.957 8.957 0 00-.324 2.472c-.008.855.082 1.715.261 2.55.157.735.465 1.426.907 2.032a4.287 4.287 0 001.66 1.336 6.02 6.02 0 002.543.562 8.025 8.025 0 004.718-1.445 3.765 3.765 0 00-.984-2.195c-.566.218-1.148.394-1.738.53a6.64 6.64 0 01-1.332.161 2.07 2.07 0 01-1.656-.59 2.395 2.395 0 01-.551-1.562h6.262a9.055 9.055 0 00.316-2.547zm-6.598.164c.004-.7.153-1.39.446-2.031a1.28 1.28 0 011.132-.536c.47-.027.918.188 1.184.575.277.535.414 1.132.395 1.738v.262h-3.157zm0 0" fill="#f6f6f6"/><path d="M59.273 34.938a3.258 3.258 0 00-1.078 2.57v4.164a3.672 3.672 0 01-1.386 3.164 5.682 5.682 0 01-3.36 1.113h-.758v-2.086a2.52 2.52 0 001.207-.68 2.773 2.773 0 00.852-2.124V37.69a5.17 5.17 0 01.523-2.687 5.092 5.092 0 012.438-1.703 5.126 5.126 0 01-2.691-2.395 6.058 6.058 0 01-.274-2.363v-3.086a2.962 2.962 0 00-.742-2.14c-.36-.348-.82-.57-1.316-.637v-1.95h1.882a3.382 3.382 0 012.078.895 4.064 4.064 0 011.368 2.05c.132.462.191.942.175 1.423v3.57a3.736 3.736 0 001.016 2.809 4.27 4.27 0 001.734.972v1.614a3.91 3.91 0 00-1.664.863zM11.363 20.73h-.68a3.418 3.418 0 00-2.078.899 3.475 3.475 0 00-1.367 2.05c-.07.47-.097.946-.074 1.423v3.566a3.815 3.815 0 01-1.11 2.816 5.763 5.763 0 01-1.992.97v1.609a5.182 5.182 0 011.922.867 3.321 3.321 0 011.172 2.57v4.164a3.615 3.615 0 001.293 3.164 5.66 5.66 0 003.36 1.117h.855v-2.082a2.975 2.975 0 01-1.305-.68 2.744 2.744 0 01-.754-2.124v-3.364a5.108 5.108 0 00-.62-2.687 5.066 5.066 0 00-2.438-1.703 5.142 5.142 0 002.691-2.395 5.808 5.808 0 00.371-2.363V25.46a2.96 2.96 0 01.645-2.14 2.606 2.606 0 011.168-.551h.867v-2.04zm0 0" fill="#f6f6f6" stroke-width=".508" stroke="#404040" stroke-miterlimit="10"/><path d="M19.371 37.637h-.648c-.707 0-.973-.371-.973-1.117V22.79a2.54 2.54 0 00-.547-1.74c-.305-.335-.832-.327-1.59-.327h-1.64v16.465a3.81 3.81 0 00.714 2.515 2.931 2.931 0 002.329.8 15.82 15.82 0 002.574-.241c.066-.34.09-.688.074-1.032 0-.542-.098-1.082-.289-1.59zm0 0" fill="#f6f6f6"/></svg>