<svg xmlns="http://www.w3.org/2000/svg" width="87" height="65" viewBox="0 0 86 65"><path d="M74 37.414a17.65 17.65 0 00-7.77 1.816c-.796-1.597-1.597-3.015-1.738-4.058-.156-1.215-.344-1.957-.156-3.41.187-1.453 1.035-3.52 1.02-3.68-.016-.156-.192-.898-1.915-.914-1.722-.016-3.21.332-3.382.789-.172.457-.5 1.5-.72 2.574-.3 1.578-3.448 7.215-5.25 10.164-.577-1.152-1.077-2.16-1.19-2.965-.157-1.218-.344-1.957-.157-3.41.188-1.453 1.035-3.52 1.02-3.68-.016-.156-.188-.898-1.91-.913-1.723-.016-3.211.332-3.383.789-.176.457-.364 1.53-.723 2.574-.36 1.039-4.543 10.45-5.64 12.879a74.57 74.57 0 01-1.391 2.922s-.016.047-.067.125c-.296.586-.468.902-.468.902v.016c-.235.425-.485.82-.61.82-.093 0-.265-1.137.032-2.684.625-3.27 2.113-8.351 2.097-8.527 0-.094.281-.977-.969-1.434-1.222-.46-1.664.297-1.773.297-.11 0-.187.27-.187.27s1.363-5.715-2.598-5.715c-2.477 0-5.89 2.73-7.582 5.195-1.067.582-3.34 1.832-5.766 3.172-.926.52-1.879 1.043-2.773 1.531-.063-.062-.125-.14-.188-.203-4.793-5.164-13.66-8.808-13.285-15.742.14-2.523 1.004-9.156 17.027-17.207C36.797 3.157 47.293 4.973 49.11 9c2.602 5.746-5.625 16.414-19.254 17.965-5.199.582-7.925-1.438-8.613-2.195-.722-.79-.832-.836-1.097-.68-.438.238-.157.945 0 1.36.406 1.07 2.082 2.964 4.918 3.898 2.507.82 8.601 1.277 15.98-1.594C49.297 24.53 55.75 15.582 53.855 8.082 51.961.472 39.43-2.035 27.57 2.211 20.52 4.734 12.875 8.715 7.38 13.89.848 20.047-.187 25.398.234 27.64c1.52 7.957 12.407 13.136 16.762 16.972-.219.125-.422.235-.594.332-2.18 1.086-10.48 5.461-12.547 10.086-2.351 5.242.375 8.996 2.176 9.504 5.594 1.563 11.34-1.246 14.426-5.89 3.086-4.641 2.711-10.672 1.285-13.434a.318.318 0 00-.062-.094c.562-.332 1.144-.68 1.707-1.012a88.037 88.037 0 013.148-1.78c-.531 1.468-.922 3.218-1.11 5.745-.238 2.965.97 6.82 2.552 8.336.707.66 1.535.676 2.07.676 1.848 0 2.676-1.547 3.601-3.379 1.13-2.238 2.145-4.844 2.145-4.844s-1.27 7.04 2.18 7.04c1.254 0 2.52-1.641 3.086-2.477v.016s.03-.047.093-.16l.203-.333v-.03c.5-.884 1.63-2.888 3.305-6.22 2.16-4.293 4.246-9.66 4.246-9.66s.188 1.309.828 3.488c.38 1.278 1.16 2.684 1.79 4.043-.504.707-.817 1.102-.817 1.102l.016.016c-.407.539-.848 1.12-1.332 1.691-1.707 2.05-3.743 4.402-4.024 5.082-.332.805-.254 1.39.375 1.863.453.348 1.27.395 2.098.348 1.535-.11 2.617-.488 3.148-.727.832-.3 1.801-.757 2.711-1.437 1.676-1.246 2.696-3.031 2.602-5.383-.047-1.293-.473-2.59-.989-3.805.157-.218.297-.441.454-.66 2.648-3.902 4.699-8.18 4.699-8.18s.187 1.313.832 3.489c.312 1.105.957 2.305 1.52 3.472-2.493 2.04-4.028 4.407-4.575 5.954-.988 2.87-.219 4.168 1.238 4.468.657.141 1.598-.175 2.286-.476a10.3 10.3 0 002.898-1.5c1.676-1.246 3.29-2.98 3.195-5.332-.046-1.074-.328-2.133-.718-3.16 2.113-.883 4.84-1.371 8.316-.961 7.457.883 8.93 5.57 8.648 7.543-.28 1.976-1.847 3.047-2.367 3.379-.515.332-.687.441-.64.68.062.347.312.331.75.269.613-.114 3.918-1.594 4.058-5.227.235-4.64-4.152-9.707-11.906-9.66zM16.48 56.957c-2.476 2.715-5.921 3.742-7.41 2.871-1.597-.93-.972-4.937 2.067-7.812 1.847-1.754 4.23-3.38 5.812-4.371.36-.223.895-.54 1.535-.934.11-.063.172-.094.172-.094.125-.078.25-.156.375-.238 1.114 4.105.047 7.719-2.55 10.578zm18.012-12.344c-.86 2.114-2.66 7.528-3.758 7.23-.941-.253-1.52-4.359-.187-8.413.672-2.04 2.098-4.47 2.93-5.418 1.347-1.516 2.836-2.02 3.195-1.403.453.805-1.645 6.676-2.18 8.004zm14.867 7.164c-.359.192-.703.317-.859.223-.11-.063.156-.316.156-.316s1.864-2.02 2.598-2.938c.426-.535.926-1.168 1.457-1.875v.203c0 2.414-2.316 4.043-3.352 4.703zm11.47-2.632c-.27-.192-.224-.825.671-2.797.344-.774 1.16-2.067 2.555-3.313.156.504.265.992.25 1.45-.016 3.046-2.18 4.183-3.477 4.66zm0 0" fill="#cd6799"/></svg>