<?xml version="1.0" encoding="UTF-8" standalone="no"?>
<svg
   enable-background="new 0 0 500 500"
   height="66"
   id="Layer_1"
   version="1.1"
   viewBox="0 0 81 66"
   width="81"
   xml:space="preserve"
   sodipodi:docname="network_administrator.svg"
   inkscape:version="1.1.2 (0a00cf5339, 2022-02-04)"
   xmlns:inkscape="http://www.inkscape.org/namespaces/inkscape"
   xmlns:sodipodi="http://sodipodi.sourceforge.net/DTD/sodipodi-0.dtd"
   xmlns="http://www.w3.org/2000/svg"
   xmlns:svg="http://www.w3.org/2000/svg"><defs
     id="defs55" /><sodipodi:namedview
     id="namedview53"
     pagecolor="#ffffff"
     bordercolor="#000000"
     borderopacity="0.25"
     inkscape:pageshadow="2"
     inkscape:pageopacity="0.0"
     inkscape:pagecheckerboard="0"
     showgrid="false"
     width="81px"
     inkscape:zoom="4.152"
     inkscape:cx="103.92582"
     inkscape:cy="44.436416"
     inkscape:window-width="1366"
     inkscape:window-height="702"
     inkscape:window-x="0"
     inkscape:window-y="0"
     inkscape:window-maximized="1"
     inkscape:current-layer="Layer_1" /><g
     id="g50"
     transform="matrix(0.17570607,0,0,0.17570607,-2.9330984,-11.013222)"
     style="stroke:#ffa501;stroke-opacity:1"><polyline
       fill="none"
       points="   25,386.911 416.464,386.911 416.464,417.032  "
       stroke="#130b7a"
       stroke-linecap="round"
       stroke-linejoin="round"
       stroke-miterlimit="2.6131"
       stroke-width="10"
       id="polyline2"
       style="stroke:#ffa501;stroke-opacity:1" /><path
       d="m 416.464,417.032 c 0,7.129 -5.825,12.936 -12.917,12.936"
       fill="none"
       stroke="#130b7a"
       stroke-linecap="round"
       stroke-linejoin="round"
       stroke-miterlimit="2.6131"
       stroke-width="10"
       id="path4"
       style="stroke:#ffa501;stroke-opacity:1" /><line
       fill="none"
       stroke="#130b7a"
       stroke-linecap="round"
       stroke-linejoin="round"
       stroke-miterlimit="2.6131"
       stroke-width="10"
       x1="403.547"
       x2="35.337002"
       y1="429.96799"
       y2="429.96799"
       id="line6"
       style="stroke:#ffa501;stroke-opacity:1" /><path
       d="M 35.337,429.968 C 29.652,429.968 25,425.306 25,419.621"
       fill="none"
       stroke="#130b7a"
       stroke-linecap="round"
       stroke-linejoin="round"
       stroke-miterlimit="2.6131"
       stroke-width="10"
       id="path8"
       style="stroke:#ffa501;stroke-opacity:1" /><line
       fill="none"
       stroke="#130b7a"
       stroke-linecap="round"
       stroke-linejoin="round"
       stroke-miterlimit="2.6131"
       stroke-width="10"
       x1="25"
       x2="25"
       y1="419.621"
       y2="386.91101"
       id="line10"
       style="stroke:#ffa501;stroke-opacity:1" /><line
       fill="none"
       stroke="#130b7a"
       stroke-linecap="round"
       stroke-linejoin="round"
       stroke-miterlimit="2.6131"
       stroke-width="10"
       x1="146.629"
       x2="59.632999"
       y1="181.76601"
       y2="181.76601"
       id="line12"
       style="stroke:#ffa501;stroke-opacity:1" /><path
       d="m 59.633,181.766 c -6.369,0 -11.575,5.206 -11.575,11.557"
       fill="none"
       stroke="#130b7a"
       stroke-linecap="round"
       stroke-linejoin="round"
       stroke-miterlimit="2.6131"
       stroke-width="10"
       id="path14"
       style="stroke:#ffa501;stroke-opacity:1" /><polyline
       fill="none"
       points="   48.058,193.322 48.058,386.911 393.406,386.911 393.406,315.674  "
       stroke="#130b7a"
       stroke-linecap="round"
       stroke-linejoin="round"
       stroke-miterlimit="2.6131"
       stroke-width="10"
       id="polyline16"
       style="stroke:#ffa501;stroke-opacity:1" /><line
       fill="none"
       stroke="#130b7a"
       stroke-linecap="round"
       stroke-linejoin="round"
       stroke-miterlimit="2.6131"
       stroke-width="10"
       x1="282.104"
       x2="203.673"
       y1="181.76601"
       y2="181.76601"
       id="line18"
       style="stroke:#ffa501;stroke-opacity:1" /><line
       fill="none"
       stroke="#130b7a"
       stroke-linecap="round"
       stroke-linejoin="round"
       stroke-miterlimit="2.6131"
       stroke-width="10"
       x1="384.06299"
       x2="314.35501"
       y1="181.76601"
       y2="181.76601"
       id="line20"
       style="stroke:#ffa501;stroke-opacity:1" /><line
       fill="none"
       stroke="#130b7a"
       stroke-linecap="round"
       stroke-linejoin="round"
       stroke-miterlimit="2.6131"
       stroke-width="10"
       x1="393.40601"
       x2="393.40601"
       y1="279.19199"
       y2="215.35699"
       id="line22"
       style="stroke:#ffa501;stroke-opacity:1" /><line
       fill="none"
       stroke="#130b7a"
       stroke-linecap="round"
       stroke-linejoin="round"
       stroke-miterlimit="2.6131"
       stroke-width="10"
       x1="44.005001"
       x2="170.869"
       y1="408.439"
       y2="408.439"
       id="line24"
       style="stroke:#ffa501;stroke-opacity:1" /><path
       d="m 353.163,411.169 c 1.511,0 2.73,-1.238 2.73,-2.729 0,-1.52 -1.22,-2.729 -2.73,-2.729 -1.51,0 -2.748,1.21 -2.748,2.729 0,1.491 1.238,2.729 2.748,2.729"
       fill="none"
       stroke="#130b7a"
       stroke-linecap="round"
       stroke-linejoin="round"
       stroke-miterlimit="2.6131"
       stroke-width="10"
       id="path26"
       style="stroke:#ffa501;stroke-opacity:1" /><path
       d="m 373.66,411.169 c 1.52,0 2.749,-1.238 2.749,-2.729 0,-1.52 -1.229,-2.729 -2.749,-2.729 -1.501,0 -2.721,1.21 -2.721,2.729 0,1.491 1.22,2.729 2.721,2.729"
       fill="none"
       stroke="#130b7a"
       stroke-linecap="round"
       stroke-linejoin="round"
       stroke-miterlimit="2.6131"
       stroke-width="10"
       id="path28"
       style="stroke:#ffa501;stroke-opacity:1" /><path
       d="m 392.469,411.169 c 1.51,0 2.748,-1.238 2.748,-2.729 0,-1.52 -1.238,-2.729 -2.748,-2.729 -1.492,0 -2.73,1.21 -2.73,2.729 -10e-4,1.491 1.238,2.729 2.73,2.729"
       fill="none"
       stroke="#130b7a"
       stroke-linecap="round"
       stroke-linejoin="round"
       stroke-miterlimit="2.6131"
       stroke-width="10"
       id="path30"
       style="stroke:#ffa501;stroke-opacity:1" /><path
       d="m 328.492,281.819 c 0,25.188 -20.422,45.618 -45.6,45.618 -25.178,0 -45.59,-20.431 -45.59,-45.618 0,-25.168 20.412,-45.6 45.59,-45.6 25.178,0 45.6,20.432 45.6,45.6"
       fill="none"
       stroke="#130b7a"
       stroke-linecap="round"
       stroke-linejoin="round"
       stroke-miterlimit="2.6131"
       stroke-width="10"
       id="path32"
       style="stroke:#ffa501;stroke-opacity:1" /><path
       d="m 314.6,101.729 c 0,17.514 -14.202,31.688 -31.707,31.688 -17.514,0 -31.688,-14.174 -31.688,-31.688 0,-17.514 14.174,-31.697 31.688,-31.697 17.504,0 31.707,14.183 31.707,31.697"
       fill="none"
       stroke="#130b7a"
       stroke-linecap="round"
       stroke-linejoin="round"
       stroke-miterlimit="2.6131"
       stroke-width="10"
       id="path34"
       style="stroke:#ffa501;stroke-opacity:1" /><path
       d="m 475,281.819 c 0,17.514 -14.193,31.707 -31.707,31.707 -17.514,0 -31.697,-14.193 -31.697,-31.707 0,-17.495 14.184,-31.688 31.697,-31.688 17.513,0 31.707,14.193 31.707,31.688"
       fill="none"
       stroke="#130b7a"
       stroke-linecap="round"
       stroke-linejoin="round"
       stroke-miterlimit="2.6131"
       stroke-width="10"
       id="path36"
       style="stroke:#ffa501;stroke-opacity:1" /><path
       d="m 445.46,144.083 c 0,11.735 -9.512,21.266 -21.266,21.266 -11.764,0 -21.304,-9.53 -21.304,-21.266 0,-11.764 9.54,-21.285 21.304,-21.285 11.754,0 21.266,9.521 21.266,21.285"
       fill="none"
       stroke="#130b7a"
       stroke-linecap="round"
       stroke-linejoin="round"
       stroke-miterlimit="2.6131"
       stroke-width="10"
       id="path38"
       style="stroke:#ffa501;stroke-opacity:1" /><path
       d="m 120.738,139.187 c 0,11.763 -9.54,21.284 -21.284,21.284 -11.764,0 -21.266,-9.521 -21.266,-21.284 0,-11.745 9.502,-21.285 21.266,-21.285 11.744,-0.001 21.284,9.539 21.284,21.285"
       fill="none"
       stroke="#130b7a"
       stroke-linecap="round"
       stroke-linejoin="round"
       stroke-miterlimit="2.6131"
       stroke-width="10"
       id="path40"
       style="stroke:#ffa501;stroke-opacity:1" /><line
       fill="none"
       stroke="#130b7a"
       stroke-linecap="round"
       stroke-linejoin="round"
       stroke-miterlimit="2.6131"
       stroke-width="10"
       x1="320.16199"
       x2="410.17001"
       y1="254.05299"
       y2="160.47099"
       id="line42"
       style="stroke:#ffa501;stroke-opacity:1" /><line
       fill="none"
       stroke="#130b7a"
       stroke-linecap="round"
       stroke-linejoin="round"
       stroke-miterlimit="2.6131"
       stroke-width="10"
       x1="282.89301"
       x2="282.89301"
       y1="234.841"
       y2="134.205"
       id="line44"
       style="stroke:#ffa501;stroke-opacity:1" /><polyline
       fill="none"
       points="   328.492,281.819 392.149,281.819 411.596,281.819  "
       stroke="#130b7a"
       stroke-linecap="round"
       stroke-linejoin="round"
       stroke-miterlimit="2.6131"
       stroke-width="10"
       id="polyline46"
       style="stroke:#ffa501;stroke-opacity:1" /><line
       fill="none"
       stroke="#130b7a"
       stroke-linecap="round"
       stroke-linejoin="round"
       stroke-miterlimit="2.6131"
       stroke-width="10"
       x1="115.514"
       x2="244.686"
       y1="153.633"
       y2="254.79401"
       id="line48"
       style="stroke:#ffa501;stroke-opacity:1" /></g></svg>
