<?xml version="1.0" encoding="UTF-8"?>
<svg xmlns="http://www.w3.org/2000/svg" xmlns:xlink="http://www.w3.org/1999/xlink" width="67px" height="65px" viewBox="0 0 66 65" version="1.1">
<g id="surface1">
<path style=" stroke:none;fill-rule:nonzero;fill:rgb(100%,64.705882%,0.392157%);fill-opacity:1;" d="M 2.179688 1.085938 C 1.410156 1.292969 0.769531 1.796875 0.460938 2.417969 C 0.230469 2.898438 0.21875 3.671875 0.179688 27.210938 C 0.167969 44.679688 0.191406 51.652344 0.292969 52.027344 C 0.472656 52.722656 1.332031 53.589844 2.011719 53.785156 C 2.371094 53.886719 5.949219 53.925781 13.847656 53.925781 L 25.167969 53.925781 L 25.128906 55.246094 L 25.09375 56.578125 L 21.824219 56.640625 C 18.105469 56.71875 17.988281 56.746094 16.988281 57.832031 C 16.089844 58.828125 15.925781 59.511719 15.925781 62.203125 L 15.925781 64.53125 L 50.03125 64.53125 L 50.03125 62.203125 C 50.03125 59.511719 49.863281 58.828125 48.964844 57.832031 C 47.964844 56.746094 47.851562 56.71875 44.132812 56.640625 L 40.863281 56.578125 L 40.824219 55.246094 L 40.785156 53.925781 L 52.109375 53.925781 C 60.007812 53.925781 63.582031 53.886719 63.941406 53.785156 C 64.621094 53.589844 65.480469 52.722656 65.660156 52.027344 C 65.761719 51.652344 65.789062 44.679688 65.777344 27.210938 C 65.738281 3.542969 65.722656 2.898438 65.492188 2.40625 C 65.171875 1.773438 64.417969 1.214844 63.609375 1.046875 C 62.609375 0.828125 2.988281 0.867188 2.179688 1.085938 Z M 63.171875 27.480469 L 63.171875 51.277344 L 2.78125 51.277344 L 2.742188 27.609375 C 2.730469 14.589844 2.742188 3.867188 2.78125 3.777344 C 2.820312 3.648438 8.9375 3.621094 33.003906 3.648438 L 63.171875 3.6875 Z M 38.234375 55.285156 L 38.234375 56.640625 L 27.71875 56.640625 L 27.71875 53.925781 L 38.234375 53.925781 Z M 46.863281 59.5 C 47.273438 59.824219 47.503906 60.523438 47.441406 61.296875 L 47.402344 61.878906 L 18.554688 61.878906 L 18.515625 61.296875 C 18.449219 60.523438 18.679688 59.824219 19.089844 59.5 C 19.425781 59.230469 19.5 59.230469 32.976562 59.230469 C 46.453125 59.230469 46.53125 59.230469 46.863281 59.5 Z M 46.863281 59.5 "/>
<path style=" stroke:none;fill-rule:nonzero;fill:rgb(100%,64.705882%,0.392157%);fill-opacity:1;" d="M 7.589844 6.324219 C 6.601562 6.53125 5.871094 7.179688 5.550781 8.136719 C 5.359375 8.730469 5.347656 40.699219 5.550781 41.421875 C 5.71875 42.054688 6.359375 42.78125 7.011719 43.078125 C 7.5 43.308594 8.628906 43.324219 32.976562 43.324219 C 57.328125 43.324219 58.453125 43.308594 58.941406 43.078125 C 59.59375 42.78125 60.238281 42.054688 60.402344 41.421875 C 60.609375 40.699219 60.597656 8.730469 60.402344 8.136719 C 60.171875 7.476562 59.699219 6.878906 59.09375 6.558594 L 58.558594 6.273438 L 33.296875 6.261719 C 19.398438 6.246094 7.832031 6.273438 7.589844 6.324219 Z M 57.914062 24.828125 L 57.914062 40.671875 L 8.039062 40.671875 L 8 24.960938 C 7.988281 16.320312 8 9.167969 8.039062 9.078125 C 8.078125 8.949219 13.140625 8.921875 33.003906 8.949219 L 57.914062 8.988281 Z M 57.914062 24.828125 "/>
<path style=" stroke:none;fill-rule:nonzero;fill:rgb(100%,64.705882%,0.392157%);fill-opacity:1;" d="M 28.476562 10.410156 C 28.296875 10.515625 28.054688 10.722656 27.953125 10.890625 C 27.847656 11.058594 26.65625 14.550781 25.296875 18.648438 L 22.824219 26.125 L 9.386719 26.125 L 9.386719 28.839844 L 16.476562 28.839844 C 20.796875 28.839844 23.734375 28.789062 24.015625 28.710938 C 24.269531 28.632812 24.59375 28.464844 24.71875 28.308594 C 24.847656 28.167969 25.808594 25.503906 26.835938 22.398438 C 27.875 19.28125 28.746094 16.839844 28.796875 16.941406 C 28.835938 17.046875 29.796875 21.585938 30.925781 27.027344 C 32.054688 32.472656 33.042969 37.078125 33.117188 37.257812 C 33.257812 37.632812 33.847656 38.019531 34.257812 38.019531 C 34.914062 38.019531 35.285156 37.59375 38.363281 33.234375 L 41.476562 28.839844 L 56.570312 28.839844 L 56.570312 26.109375 L 48.453125 26.148438 C 41.566406 26.1875 40.285156 26.214844 40.105469 26.382812 C 39.976562 26.484375 38.796875 28.074219 37.492188 29.9375 C 34.722656 33.871094 35.042969 33.417969 34.964844 33.351562 C 34.9375 33.3125 33.902344 28.398438 32.65625 22.4375 C 31.414062 16.464844 30.308594 11.367188 30.207031 11.121094 C 29.898438 10.386719 29.105469 10.0625 28.476562 10.410156 Z M 28.476562 10.410156 "/>
<path style=" stroke:none;fill-rule:nonzero;fill:rgb(100%,64.705882%,0.392157%);fill-opacity:1;" d="M 55.992188 44.769531 C 54.902344 45.003906 54.003906 46.15625 54.003906 47.332031 C 54.003906 48.921875 55.261719 50.019531 56.902344 49.890625 C 58.429688 49.761719 59.542969 48.199219 59.148438 46.722656 C 58.761719 45.261719 57.441406 44.460938 55.992188 44.769531 Z M 55.992188 44.769531 "/>
</g>
</svg>
