<?xml version="1.0" encoding="UTF-8" standalone="no"?>
<svg
   height="66"
   width="80"
   version="1.1"
   id="svg27"
   sodipodi:docname="augmented_reality_computer_developer_coding_programming_icon_134250.svg"
   inkscape:version="1.1.2 (0a00cf5339, 2022-02-04)"
   xmlns:inkscape="http://www.inkscape.org/namespaces/inkscape"
   xmlns:sodipodi="http://sodipodi.sourceforge.net/DTD/sodipodi-0.dtd"
   xmlns="http://www.w3.org/2000/svg"
   xmlns:svg="http://www.w3.org/2000/svg">
  <sodipodi:namedview
     id="namedview29"
     pagecolor="#ffffff"
     bordercolor="#000000"
     borderopacity="0.25"
     inkscape:pageshadow="2"
     inkscape:pageopacity="0.0"
     inkscape:pagecheckerboard="0"
     showgrid="false"
     width="80px"
     inkscape:zoom="5.7341941"
     inkscape:cx="27.118022"
     inkscape:cy="32.872972"
     inkscape:window-width="1366"
     inkscape:window-height="702"
     inkscape:window-x="0"
     inkscape:window-y="0"
     inkscape:window-maximized="1"
     inkscape:current-layer="_10" />
  <defs
     id="defs4">
    <style
       id="style2">.cls-2{fill:#fff}.cls-2,.cls-3,.cls-4{stroke:#006df0;stroke-linecap:round;stroke-linejoin:round;stroke-width:2px}.cls-3{fill:none}.cls-4{fill:#78b9eb}</style>
  </defs>
  <g
     data-name="10"
     id="_10"
     transform="matrix(1.4444446,0,0,1.4444446,-6.0052255,-13.003865)"
     style="stroke:#ffa501;stroke-opacity:1">
    <path
       fill="#ffffff"
       d="m 5.5,17.5 h 46 v 26 h -46 z"
       id="path6"
       style="stroke:#ffa501;stroke-opacity:1" />
    <path
       class="cls-2"
       d="m 28.5,43.5 -8,10 h 16 z"
       id="path8"
       style="stroke:#ffa501;stroke-opacity:1" />
    <path
       class="cls-3"
       d="m 51.5,28.5 v 15 h -46 v -26 h 35"
       id="path10"
       style="stroke:#ffa501;stroke-opacity:1" />
    <path
       class="cls-4"
       d="m 5.5,43.5 h 46 v 5 h -46 z"
       id="path12"
       style="stroke:#ffa501;stroke-opacity:1;fill:#ffffff;fill-opacity:1" />
    <path
       class="cls-2"
       d="m 15.5,53.5 h 26 m 10,-43 -7,2.333 7,2.334 7,-2.334 z"
       id="path14"
       style="stroke:#ffa501;stroke-opacity:1" />
    <path
       class="cls-4"
       d="m 58.5,22.167 -7,2.333 -7,-2.333 v -9.334 l 7,2.334 7,-2.334 z m -7,-7 V 24.5 M 41.5,13 Z m -3,0 z m -3,0 z m 23,18 z m 0,-3 z m 0,-3 z"
       id="path16"
       style="stroke:#ffa501;stroke-opacity:1;fill:#ffffff;fill-opacity:1" />
    <path
       fill="#006df0"
       stroke="#78b9eb"
       stroke-linecap="round"
       stroke-linejoin="round"
       stroke-width="2"
       d="m 28.5,21.5 v 18"
       id="path18"
       style="stroke:#ffa501;stroke-opacity:1" />
    <path
       class="cls-3"
       d="M 36,28 33.5,30.5 36,33 m 8,-5 2.5,2.5 L 44,33"
       id="path20"
       style="stroke:#ffa501;stroke-opacity:1" />
    <path
       class="cls-4"
       d="m 41,28 -2,5"
       id="path22"
       style="stroke:#ffa501;stroke-opacity:1" />
    <path
       class="cls-2"
       d="m 9.5,22.5 h 3 m -3,3 h 9 m -9,5 h 6 m -6,8 h 3 m -3,-5 h 3 m 3,0 h 3"
       id="path24"
       style="stroke:#ffa501;stroke-opacity:1" />
  </g>
</svg>
