<svg width="21" height="20" fill="none" xmlns="http://www.w3.org/2000/svg"><path d="M10.947.504c-5.525 0-10 4.362-10 9.742 0 4.304 2.865 7.955 6.837 9.242.5.091.683-.21.683-.469 0-.231-.008-.844-.012-1.656-2.782.587-3.368-1.307-3.368-1.307-.455-1.124-1.113-1.425-1.113-1.425-.906-.604.07-.591.07-.591 1.004.067 1.532 1.003 1.532 1.003.891 1.49 2.34 1.06 2.912.81.09-.63.348-1.058.634-1.302-2.221-.244-4.555-1.081-4.555-4.814a3.7 3.7 0 011.029-2.613c-.113-.246-.45-1.237.087-2.578 0 0 .838-.261 2.75.998.8-.216 1.65-.324 2.5-.329.85.005 1.7.113 2.5.33 1.9-1.26 2.738-1 2.738-1 .537 1.342.2 2.333.1 2.579a3.719 3.719 0 011.025 2.613c0 3.742-2.338 4.566-4.563 4.806.35.292.675.89.675 1.802 0 1.304-.012 2.351-.012 2.668 0 .255.175.56.687.462 4.001-1.279 6.864-4.932 6.864-9.23 0-5.379-4.478-9.74-10-9.74z" fill="#212121"/></svg>