<svg width="21" height="21" fill="none" xmlns="http://www.w3.org/2000/svg"><path d="M14.586.001h-7.5a6.25 6.25 0 00-6.25 6.25v7.5a6.25 6.25 0 006.25 6.25h7.5a6.25 6.25 0 006.25-6.25v-7.5a6.25 6.25 0 00-6.25-6.25zm4.375 13.75a4.38 4.38 0 01-4.375 4.376h-7.5a4.38 4.38 0 01-4.375-4.375v-7.5a4.38 4.38 0 014.375-4.376h7.5a4.38 4.38 0 014.375 4.375v7.5z" fill="#000"/><path d="M10.836 5.001a5 5 0 100 10 5 5 0 000-10zm0 8.125a3.13 3.13 0 01-3.125-3.124 3.129 3.129 0 013.125-3.126 3.129 3.129 0 013.125 3.125 3.13 3.13 0 01-3.125 3.126zm5.374-7.833a.666.666 0 100-1.333.666.666 0 000 1.333z" fill="#000"/></svg>