<svg width="32" height="32" data-name="Layer 1" xmlns="http://www.w3.org/2000/svg"><path d="M20.905.111h-9.817c-8.967 0-11.1 2.133-11.1 11.083v9.817c0 8.967 2.117 11.1 11.083 11.1h9.817c8.967 0 11.1-2.117 11.1-11.083V11.21c0-8.967-2.117-11.1-11.083-11.1zm4.916 22.833h-2.333c-.883 0-1.15-.716-2.733-2.3-1.384-1.333-1.967-1.5-2.317-1.5-.483 0-.617.134-.617.8v2.1c0 .567-.183.9-1.666.9a9.107 9.107 0 01-7.117-4.266 18.602 18.602 0 01-3.683-7.734c0-.35.133-.666.8-.666h2.333c.6 0 .817.266 1.05.883 1.133 3.333 3.067 6.233 3.85 6.233.3 0 .433-.133.433-.883v-3.433c-.1-1.567-.933-1.7-.933-2.267a.576.576 0 01.6-.533h3.667c.5 0 .666.25.666.85v4.633c0 .5.217.667.367.667.3 0 .533-.167 1.083-.717a19.198 19.198 0 002.867-4.767 1.005 1.005 0 011.017-.666h2.333c.7 0 .85.35.7.85a29.128 29.128 0 01-3.133 5.383c-.25.383-.35.583 0 1.033.233.35 1.05 1.034 1.6 1.684a10.377 10.377 0 011.966 2.733c.2.65-.133.983-.8.983z"/></svg>