<?xml version="1.0" encoding="utf-8"?>
<!-- Svg Vector Icons : http://www.onlinewebfonts.com/icon -->
<!DOCTYPE svg PUBLIC "-//W3C//DTD SVG 1.1//EN" "http://www.w3.org/Graphics/SVG/1.1/DTD/svg11.dtd">
<svg version="1.1" xmlns="http://www.w3.org/2000/svg" xmlns:xlink="http://www.w3.org/1999/xlink" x="0px" y="0px" viewBox="0 0 1000 1000" enable-background="new 0 0 1000 1000" xml:space="preserve">
<metadata> Svg Vector Icons : http://www.onlinewebfonts.com/icon </metadata>
<g><path fill="#c70101" d="M928.8,867.5c0,33.7-27.4,61.3-61.3,61.3h-735c-33.8,0-61.3-27.6-61.3-61.3v-735c0-33.8,27.4-61.3,61.3-61.3h735c33.8,0,61.3,27.4,61.3,61.3V867.5L928.8,867.5z M867.5,10h-735C64.8,10,10,64.8,10,132.5v735C10,935.2,64.8,990,132.5,990h735c67.7,0,122.5-54.8,122.5-122.5v-735C990,64.8,935.2,10,867.5,10L867.5,10z M523.8,355.6c-6.4-6.5-14.9-9.2-23.3-8.8c-8.4-0.5-16.9,2.3-23.3,8.8L203.3,630.5c-12,11.9-12,31.5,0,43.8c12.1,11.9,31.6,11.9,43.6,0l253.6-254.6L754,674.3c12,11.9,31.5,11.9,43.6,0c12-12.2,12-31.8,0-43.8L523.8,355.6L523.8,355.6z"/></g>
</svg>