<?xml version="1.0" encoding="utf-8"?>
<!-- Svg Vector Icons : http://www.onlinewebfonts.com/icon -->
<!DOCTYPE svg PUBLIC "-//W3C//DTD SVG 1.1//EN" "http://www.w3.org/Graphics/SVG/1.1/DTD/svg11.dtd">
<svg version="1.1" xmlns="http://www.w3.org/2000/svg" xmlns:xlink="http://www.w3.org/1999/xlink" x="0px" y="0px" viewBox="0 0 1000 1000" enable-background="new 0 0 1000 1000" xml:space="preserve">
<metadata> Svg Vector Icons : http://www.onlinewebfonts.com/icon </metadata>
<g><path d="M500,10.1c-270.6,0-490,219.4-490,489.9c0,270.6,219.4,490,490,490s490-219.4,490-490C990,229.4,770.6,10.1,500,10.1z M500,924.3c-234,0-424.4-190.4-424.4-424.4C75.6,266,266,75.7,500,75.7C734,75.7,924.4,266,924.4,499.9C924.4,733.9,734,924.3,500,924.3z"/><path d="M522.7,343.4c-6.5-6.5-15.1-9.7-23.7-9.6c-8.7-0.1-17.3,3.1-23.9,9.6L255.5,537.6c-12.9,12.9-12.9,33.8,0,46.7c12.8,12.9,33.8,12.9,46.7,0l196.6-174l196.7,174c12.9,12.9,33.8,12.9,46.7,0c12.9-12.8,12.9-33.7,0-46.7L522.7,343.4z"/></g>
</svg>