<svg xmlns="http://www.w3.org/2000/svg" viewBox="0 0 1000 1000"><path d="M500 10.1C229.4 10.1 10 229.5 10 500c0 270.6 219.4 490 490 490s490-219.4 490-490S770.6 10.1 500 10.1zm0 914.2c-234 0-424.4-190.4-424.4-424.4C75.6 266 266 75.7 500 75.7c234 0 424.4 190.3 424.4 424.2 0 234-190.4 424.4-424.4 424.4z"/><path d="M522.7 343.4c-6.5-6.5-15.1-9.7-23.7-9.6-8.7-.1-17.3 3.1-23.9 9.6L255.5 537.6c-12.9 12.9-12.9 33.8 0 46.7 12.8 12.9 33.8 12.9 46.7 0l196.6-174 196.7 174c12.9 12.9 33.8 12.9 46.7 0 12.9-12.8 12.9-33.7 0-46.7L522.7 343.4z"/></svg>