<svg height="66" width="81" xmlns="http://www.w3.org/2000/svg"><g stroke="#ffa501" fill="none" stroke-linecap="round" stroke-linejoin="round" stroke-miterlimit="2.613" stroke-width="1.757"><path d="M1.46 56.97h68.782v5.292m0 0a2.278 2.278 0 01-2.27 2.273m.001 0H3.276m0 0c-1 0-1.816-.82-1.816-1.818m0 0v-5.748m21.37-36.045H7.546m-.001 0c-1.12 0-2.034.915-2.034 2.03m0 .001v34.014h60.68V44.453M46.634 20.924h-13.78m31.696 0H52.3m13.89 17.119V26.826M4.799 60.752h22.29"/><path d="M59.12 61.232c.265 0 .48-.218.48-.48a.48.48 0 00-.963 0c0 .262.217.48.483.48m3.601 0a.48.48 0 10.007-.959.48.48 0 00-.007.959m3.305 0a.484.484 0 00.483-.48.48.48 0 10-.483.48M54.785 38.504a8.015 8.015 0 01-8.012 8.015c-4.424 0-8.01-3.59-8.01-8.015a8.013 8.013 0 018.01-8.012 8.015 8.015 0 018.012 8.012M52.344 6.861a5.569 5.569 0 01-5.571 5.568 5.565 5.565 0 01-5.568-5.568 5.57 5.57 0 0111.139 0m28.183 31.643a5.57 5.57 0 11-11.14.001 5.57 5.57 0 0111.14 0m-5.19-24.202a3.741 3.741 0 01-7.48 0 3.74 3.74 0 017.48 0m-57.056-.86a3.74 3.74 0 01-3.74 3.74 3.735 3.735 0 01-3.736-3.74 3.737 3.737 0 117.476 0m35.04 20.182l15.815-16.442M46.773 30.25V12.567m8.012 25.937h14.602M17.363 15.981L40.06 33.756"/></g></svg>