<svg xmlns="http://www.w3.org/2000/svg" width="67" height="65" viewBox="0 0 66 65"><g fill="#ffa501"><path d="M2.18 1.086c-.77.207-1.41.71-1.72 1.332-.23.48-.241 1.254-.28 24.793C.168 44.68.19 51.652.293 52.027c.18.696 1.039 1.563 1.719 1.758.36.102 3.937.14 11.836.14h11.32l-.04 1.321-.034 1.332-3.27.063c-3.719.078-3.836.105-4.836 1.191-.898.996-1.062 1.68-1.062 4.371v2.328H50.03v-2.328c0-2.691-.168-3.375-1.066-4.371-1-1.086-1.113-1.113-4.832-1.191l-3.27-.063-.039-1.332-.039-1.32H52.11c7.899 0 11.473-.04 11.832-.14.68-.196 1.54-1.063 1.72-1.759.1-.375.128-7.347.116-24.816-.039-23.668-.054-24.313-.285-24.805-.32-.633-1.074-1.191-1.883-1.36-1-.218-60.62-.179-61.43.04zM63.172 27.48v23.797H2.782l-.04-23.668c-.012-13.02 0-23.742.04-23.832.038-.129 6.155-.156 30.222-.129l30.168.04zM38.234 55.285v1.356H27.72v-2.715h10.515zm8.63 4.215c.41.324.64 1.023.577 1.797l-.039.582H18.555l-.04-.582c-.066-.774.165-1.473.575-1.797.336-.27.41-.27 13.887-.27 13.476 0 13.554 0 13.886.27zm0 0"/><path d="M7.59 6.324c-.988.207-1.719.856-2.04 1.813-.19.593-.202 32.562 0 33.285.169.633.81 1.36 1.462 1.656.488.23 1.617.246 25.965.246 24.351 0 25.476-.015 25.964-.246.653-.297 1.297-1.023 1.461-1.656.207-.723.196-32.692 0-33.285-.23-.66-.703-1.258-1.308-1.578l-.535-.286-25.262-.011c-13.899-.016-25.465.011-25.707.062zm50.324 18.504v15.844H8.04L8 24.96c-.012-8.64 0-15.793.04-15.883.038-.129 5.1-.156 24.964-.129l24.91.04zm0 0"/><path d="M28.477 10.41c-.18.106-.422.313-.524.48-.105.169-1.297 3.66-2.656 7.758l-2.473 7.477H9.387v2.715h7.09c4.32 0 7.257-.05 7.539-.13.254-.077.578-.245.703-.401.129-.141 1.09-2.805 2.117-5.91 1.039-3.118 1.91-5.56 1.96-5.458.04.106 1 4.645 2.13 10.086 1.129 5.446 2.117 10.051 2.191 10.23.14.376.73.763 1.14.763.657 0 1.028-.426 4.106-4.786l3.114-4.394H56.57v-2.73l-8.117.038c-6.887.04-8.168.067-8.348.235-.128.101-1.308 1.691-2.613 3.555-2.77 3.933-2.449 3.48-2.527 3.414-.028-.04-1.063-4.954-2.309-10.914-1.242-5.973-2.347-11.07-2.449-11.317-.309-.734-1.102-1.059-1.73-.71zm27.515 34.36c-1.09.234-1.988 1.386-1.988 2.562 0 1.59 1.258 2.688 2.898 2.559 1.528-.13 2.641-1.692 2.246-3.168-.386-1.461-1.707-2.262-3.156-1.953zm0 0"/></g></svg>