<svg height="66" width="80" version="1.1" id="svg27" xmlns="http://www.w3.org/2000/svg"><defs id="defs4"><style id="style2">.cls-2{fill:#fff}.cls-2,.cls-3,.cls-4{stroke:#006df0;stroke-linecap:round;stroke-linejoin:round;stroke-width:2px}.cls-3{fill:none}.cls-4{fill:#78b9eb}</style></defs><g data-name="10" id="_10" transform="translate(-6.005 -13.004) scale(1.44444)" stroke="#ffa501" stroke-opacity="1"><path fill="#fff" d="M5.5 17.5h46v26h-46z" id="path6" stroke="#ffa501" stroke-opacity="1"/><path class="cls-2" d="M28.5 43.5l-8 10h16z" id="path8" stroke="#ffa501" stroke-opacity="1"/><path class="cls-3" d="M51.5 28.5v15h-46v-26h35" id="path10" stroke="#ffa501" stroke-opacity="1"/><path class="cls-4" d="M5.5 43.5h46v5h-46z" id="path12" stroke="#ffa501" stroke-opacity="1" fill="#fff" fill-opacity="1"/><path class="cls-2" d="M15.5 53.5h26m10-43l-7 2.333 7 2.334 7-2.334z" id="path14" stroke="#ffa501" stroke-opacity="1"/><path class="cls-4" d="M58.5 22.167l-7 2.333-7-2.333v-9.334l7 2.334 7-2.334zm-7-7V24.5M41.5 13zm-3 0zm-3 0zm23 18zm0-3zm0-3z" id="path16" stroke="#ffa501" stroke-opacity="1" fill="#fff" fill-opacity="1"/><path fill="#006df0" stroke="#ffa501" stroke-linecap="round" stroke-linejoin="round" stroke-width="2" d="M28.5 21.5v18" id="path18" stroke-opacity="1"/><path class="cls-3" d="M36 28l-2.5 2.5L36 33m8-5l2.5 2.5L44 33" id="path20" stroke="#ffa501" stroke-opacity="1"/><path class="cls-4" d="M41 28l-2 5" id="path22" stroke="#ffa501" stroke-opacity="1"/><path class="cls-2" d="M9.5 22.5h3m-3 3h9m-9 5h6m-6 8h3m-3-5h3m3 0h3" id="path24" stroke="#ffa501" stroke-opacity="1"/></g></svg>